<svg width="235" height="181" viewBox="0 0 235 181" fill="none" xmlns="http://www.w3.org/2000/svg">
<path opacity="0.08" d="M381.232 58.7789C380.829 57.8461 380.238 57.0062 379.496 56.3115C378.754 55.6167 377.877 55.082 376.92 54.7404C371.822 52.3796 367.479 49.0523 363.2 45.6259C362.943 45.4195 362.722 45.1733 362.228 44.7021C370.474 43.0638 377.952 40.1134 385.382 37.0351L385.334 36.4268C384.841 36.2835 384.328 36.2183 383.815 36.2335C377.584 37.4485 371.38 36.9293 365.235 36.2956C357.56 35.5218 350.073 33.4374 343.102 30.1327C342.652 29.9834 342.193 29.8645 341.726 29.7769C344.148 28.35 346.043 27.2424 347.931 26.1191C358.019 20.2053 367.783 13.7547 377.18 6.79492C378.285 5.96539 379.474 5.23875 380.627 4.46759C381.174 4.16813 381.594 3.68105 381.809 3.09628C382.025 2.51151 382.022 1.86846 381.801 1.28582C381.102 -0.85976 379.992 -2.54075 377.395 -3.12427C370.339 -4.72306 363.334 -6.52262 356.282 -8.14718C352.445 -9.03109 349.032 -10.4394 346.667 -13.5649C345.505 -15.1027 343.671 -15.4683 341.795 -15.7647C335.571 -16.7415 329.345 -17.7199 323.146 -18.808C320.042 -19.3519 316.992 -20.1338 313.566 -20.8844L330.367 -30.6315L330.37 -31.2132L321.484 -31.6346L321.371 -31.9762L326.156 -35.1321C325.098 -35.2896 324.601 -35.3747 324.099 -35.4371C309.97 -37.2141 295.798 -38.7708 281.722 -40.8202C262.466 -43.624 243.258 -46.6923 224.078 -49.8706C215.505 -51.2915 207.044 -53.2309 198.55 -55.0001C197.803 -55.2164 197.011 -55.2295 196.256 -55.0379C195.502 -54.8464 194.812 -54.4572 194.258 -53.9104C187.466 -47.6816 180.456 -41.6635 173.801 -35.3055C163.699 -25.6197 155.487 -14.1388 149.584 -1.44891C148.991 -0.185084 148.631 1.17475 148.116 2.47241C147.651 3.79173 147.089 5.07497 146.434 6.31136C145.301 8.2646 143.919 8.79262 141.701 8.14785C138.669 7.26484 135.708 6.16682 132.661 5.32699C121.422 2.23132 109.843 1.56882 98.1032 2.20555C86.9555 2.85446 75.8876 4.49342 65.0303 7.10305C58.0987 8.9092 51.0379 10.1764 43.9109 10.8934C38.1037 11.3435 32.7259 10.6183 27.9962 7.3056C27.1864 6.93248 26.3214 6.69302 25.4349 6.59653C25.1977 7.4445 25.0754 8.32043 25.071 9.20094C26.009 16.2679 30.2742 20.7613 37.1088 23.3243C39.5123 24.2841 41.8391 25.4256 44.0691 26.7388C37.6732 28.025 31.9277 32.1573 24.7164 30.4408C25.9513 33.888 28.9995 35.2979 31.3313 37.31C28.9184 39.5101 26.6118 41.72 24.1823 43.8003C23.588 44.2759 23.0945 44.865 22.7303 45.5333C22.366 46.2016 22.1386 46.9357 22.061 47.6929C21.888 49.2334 21.6427 50.7674 21.4898 52.3097C21.4596 52.9943 21.2085 53.6508 20.7746 54.1812C20.3408 54.7116 19.7476 55.0874 19.0826 55.2528C16.9083 55.9911 16.4151 57.1071 17.7347 58.9432C20.9505 63.4104 24.2369 67.8358 27.663 72.1566C33.4888 79.4994 39.3608 86.8216 45.3703 94.0313C53.8149 104.159 62.1723 114.367 71.0027 124.184C79.5922 133.733 88.6692 142.888 97.6575 152.105C101.166 155.703 104.982 159.036 108.729 162.417C110.747 164.237 112.119 164.246 114.392 162.843C121.582 158.414 128.759 153.966 135.981 149.584C147.74 142.448 159.389 135.128 171.347 128.311C184.565 120.779 198.059 113.694 211.483 106.498C214.999 104.6 218.619 102.901 222.326 101.409C223.915 100.965 225.579 100.858 227.212 101.095C228.277 101.244 229.311 101.566 230.272 102.05C233.34 103.228 236.732 103.258 239.821 102.135C248.584 99.2845 257.014 95.4945 264.962 90.8309C268.271 88.9705 271.5 86.973 274.697 84.9386C275.631 84.2937 276.458 83.5041 277.145 82.5996C278.454 80.9832 277.727 79.1301 275.689 78.6567C275.51 78.6401 275.331 78.6135 275.155 78.5772C274.254 78.2565 273.361 77.9191 272.467 77.5883C272.976 76.7063 273.264 75.5408 274.028 74.9861C280.849 70.0508 287.671 65.1156 294.659 60.408C303.751 54.2871 313.039 48.4336 322.149 42.3351C322.975 41.6898 323.962 41.2841 325.003 41.1624C326.044 41.0408 327.098 41.2079 328.05 41.6454C335.657 44.8081 343.22 48.0641 350.905 51.0554C359.196 54.2822 367.617 57.2243 376.62 58.4426C378.008 58.6195 379.434 58.6482 381.232 58.7789ZM315.977 -32.1502C315.752 -31.8848 315.507 -31.638 315.243 -31.412C314.431 -30.8919 313.616 -30.3732 312.779 -29.8939C302.707 -24.3384 293.289 -17.6732 284.7 -10.023C272.244 1.29679 261.498 14.3663 252.8 28.776C247.047 38.3867 241.776 48.2056 240.886 59.4147C240.802 59.7689 240.649 60.103 240.435 60.3981C235.063 56.7793 229.941 52.9901 224.462 49.7187C216.705 45.0838 208.734 40.7523 200.765 36.4339C191.762 31.5572 182.746 26.6913 173.576 22.0976C165.67 18.1382 157.549 14.5483 149.496 10.8478C148.341 10.3167 148.051 9.67585 148.492 8.54927C149.932 4.86301 151.302 1.15339 152.759 -2.52806C155.749 -10.0839 160.332 -16.7984 165.498 -23.2003C171.356 -30.4574 177.441 -37.5239 184.72 -43.5893C187.897 -46.2366 191.341 -48.652 194.185 -51.586C196.006 -53.4648 197.466 -53.734 199.844 -53.1591C208.67 -51.0266 217.523 -48.9612 226.438 -47.1487C233.947 -45.6216 241.575 -44.5625 249.114 -43.1515C260.068 -41.1007 270.938 -38.6847 281.94 -36.8652C291.634 -35.2615 301.462 -34.2735 311.225 -32.9876C312.743 -32.7899 314.243 -32.46 315.973 -32.1492L315.977 -32.1502ZM27.0163 7.78777C27.3765 8.13025 27.7705 8.43546 28.1922 8.69852C30.4336 9.8133 32.5695 11.4171 34.9789 11.8728C42.347 13.1739 49.91 12.8548 57.1424 10.9378C70.9025 7.51254 84.7506 4.76362 98.9482 4.32946C107.994 4.05264 116.97 4.38287 125.67 6.53573C131.053 7.86839 136.213 9.94235 141.59 11.2892C154.879 14.615 166.813 20.6877 178.776 26.6655C185.527 30.039 191.972 33.9395 198.51 37.6724C211.271 44.9574 224.323 51.8382 235.889 60.8053C237.549 62.0915 239.07 63.5361 240.656 64.9116L240.309 65.2964C240.092 65.238 239.878 65.1664 239.669 65.082C228.931 60.0377 217.244 58.3523 205.356 57.5003C193.576 56.7893 181.755 57.2401 170.063 58.8463C156.697 60.5247 143.869 63.93 132.081 70.615C131.618 70.9486 131.046 71.0944 130.48 71.0232C129.914 70.9519 129.396 70.6688 129.03 70.2309C127.855 69.0256 126.576 67.9261 125.209 66.945C116.84 61.2613 108.513 55.5191 100.001 50.0292C83.968 39.5014 66.8837 30.6695 49.0238 23.6761C42.8174 21.392 36.96 18.253 31.6212 14.35C29.3209 12.8126 27.6782 10.4711 27.0155 7.78494L27.0163 7.78777ZM19.3273 56.3127C23.9061 55.6256 24.7846 52.8823 24.4328 48.9984C26.3829 50.9461 27.893 52.4847 29.439 53.991C31.8002 56.2903 34.2262 58.5288 36.5506 60.8607C41.076 65.4044 45.4351 70.1055 50.0901 74.5224C52.8549 77.1452 56.1672 79.2454 59.0429 81.7722C67.3322 89.0541 75.5314 96.4284 83.7501 103.783C84.8823 104.797 85.9154 105.907 86.9953 106.973L86.5671 107.377C78.571 100.241 70.5751 93.1047 62.5795 85.9681L62.319 86.2202L95.4221 118.452L94.8854 118.949C88.9349 113.284 83.0297 107.575 77.0213 101.965C68.678 94.1729 60.2883 86.4254 51.8523 78.7228C50.1597 77.1751 48.2299 75.8629 46.4085 74.4377L45.9866 74.8346C48.2677 77.1637 50.4956 79.5411 52.8389 81.8121C60.7429 89.4695 68.6693 97.1065 76.6176 104.723C84.2149 112.027 91.8813 119.269 99.3921 126.647C102.163 129.369 104.582 132.413 107.16 135.31L106.543 135.837L73.1512 103.616L72.7802 103.946L88.4282 120.335L87.9168 120.783L78.3028 111.499L78.0415 111.729L97.0604 133.233L96.8272 133.413L85.274 122.601L84.7396 123.083L110.626 152.102C110.601 150.989 110.537 150.199 110.572 149.408C110.781 144.671 113.768 141.385 117.403 138.558C128.685 129.861 140.729 122.199 153.388 115.665C164.619 109.783 176.286 104.773 188.285 100.68C192.012 99.4144 195.792 98.3005 199.548 97.1174C177.775 106.425 157.455 118.815 139.209 133.907C159.164 119.662 180.732 107.822 203.464 98.6343L156.809 125.445C156.925 125.648 157.04 125.85 157.155 126.053L205.039 101.047C204.904 101.401 204.643 101.693 204.305 101.865C188.098 111.23 171.889 120.593 155.679 129.954C143.707 136.872 131.776 143.856 119.762 150.707C113.198 154.451 110.16 154.692 105.035 149.258C100.954 144.93 96.7608 140.696 92.7605 136.303C84.0168 126.709 75.3239 117.072 66.682 107.394C57.9701 97.6271 49.3129 87.8167 40.7103 77.963C36.7636 73.4577 33.056 68.7589 29.0101 64.3393C27.2751 62.4447 24.9538 61.0355 22.8987 59.4068L22.5163 59.789C22.7368 60.1016 22.9308 60.4337 23.1812 60.7227C28.7243 67.1308 34.2892 73.5206 39.8166 79.94C48.9166 90.5081 58.0007 101.089 67.0687 111.682C73.3835 119.08 79.4154 126.705 85.9336 133.935C93.0744 141.857 100.626 149.445 108.006 157.171C109.299 158.519 110.465 158.515 112.301 157.244C113.832 156.183 115.306 155.027 116.921 154.098C123.201 150.486 129.526 146.943 135.841 143.386C144.523 138.494 153.253 133.673 161.894 128.71C175.453 120.921 188.733 112.706 202.754 105.633C211.327 101.308 219.606 96.4704 228.692 93.1791C231.251 92.2295 233.858 91.4126 236.502 90.7319C238.136 90.325 238.622 90.9661 238.213 92.5087C237.991 93.347 237.631 94.1568 237.431 94.9964C236.747 97.8552 238.474 99.5387 241.443 98.7615C243.549 98.1862 245.613 97.4624 247.617 96.5955C256.092 93.0278 263.722 88.0427 271.408 83.1655C272.038 82.6525 272.603 82.0654 273.091 81.4167C272.916 81.2049 272.741 80.9931 272.567 80.7816C271.598 81.217 270.664 81.7258 269.773 82.3034C261.978 88.169 253.233 92.6528 243.92 95.5593C242.761 95.9271 241.538 96.0943 240.342 96.3519L240.265 95.946C240.652 95.8424 241.037 95.7111 241.429 95.6338C247.92 94.4247 253.585 91.2948 258.796 87.6559C261.587 85.7075 263.521 82.5672 265.566 79.7875C266 79.1991 265.32 77.8116 264.985 76.8493C264.845 76.4385 264.279 76.1712 263.863 75.8041C264.117 75.5364 264.263 75.3626 264.434 75.2037C273.612 66.8024 283.407 59.1005 293.735 52.1629C299.687 48.0686 305.809 44.2042 311.794 40.1557C314.554 38.2891 316.801 38.0751 319.81 39.7877C315.498 42.6294 311.184 45.3877 306.968 48.2763C297.924 54.4692 288.795 60.5597 279.99 67.0526C276.865 69.3577 274.436 72.5957 271.976 75.6212C270.292 77.6932 271.327 79.5403 273.994 79.896L275.775 80.1338C275.237 80.8342 274.64 81.4874 273.991 82.0867C268.747 86.1092 263.534 90.1608 257.288 92.7777C251.082 95.3807 244.96 98.1632 238.778 100.83C235.779 102.124 235.022 101.61 235.309 98.6035C235.503 96.5839 234.749 95.3891 232.678 94.9711C231.562 94.7282 230.404 94.7388 229.292 95.0021C227.171 95.5223 225.109 96.2544 223.135 97.1873C213.21 102.189 203.245 107.133 193.488 112.427C182.227 118.536 170.915 124.617 160.081 131.383C144.281 141.251 128.875 151.706 113.338 161.955C113.125 162.158 112.871 162.312 112.593 162.407C112.314 162.501 112.019 162.534 111.727 162.502C111.435 162.471 111.153 162.376 110.901 162.224C110.649 162.072 110.434 161.868 110.269 161.624C108.041 159.294 105.795 156.968 103.4 154.794C96.6815 148.86 90.3885 142.461 84.5682 135.644C78.8719 128.784 72.715 122.281 66.8672 115.539C62.9791 111.055 59.307 106.403 55.4879 101.864C50.0349 95.3858 44.4091 89.0362 39.0936 82.4574C34.2147 76.4139 29.6413 70.1549 24.9556 63.9747C23.1421 61.5554 21.3786 59.101 19.3255 56.3132L19.3273 56.3127ZM24.5553 45.0671C27.3739 42.8546 29.9734 40.7597 32.6639 38.7803C32.9685 38.5567 33.9474 38.8099 34.3588 39.1314C40.1192 43.635 46.1652 47.7614 52.4583 51.4846C67.0948 60.1927 81.6409 69.0351 96.0968 78.0119C103.658 82.7212 110.903 87.8767 118.27 92.8564C120.032 94.047 121.063 94.0026 122.786 92.6366C125.081 90.6054 127.525 88.7499 130.099 87.086C137.852 82.6527 145.696 78.3672 153.632 74.2294C164.193 68.6515 175.861 65.4878 187.794 64.9665C200.594 64.4338 213.046 66.2984 225.322 69.1729C227.262 69.6271 229.165 70.203 231.085 70.7238C230.448 70.9815 229.76 71.0852 229.076 71.0264C224.008 71.154 218.91 70.9564 213.879 71.5028C201.682 72.8399 190.057 76.7166 178.413 80.3854C169.468 83.2029 161.059 87.2355 152.66 91.3077C138.706 98.0734 124.803 104.903 112.099 113.759C110.891 114.6 109.574 116.064 108.422 116.002C107.227 115.938 106.177 114.365 105.056 113.46C91.5041 102.54 77.9534 91.6183 64.4043 80.6941C62.5238 79.1761 60.7496 77.5405 58.9268 75.9594L59.2622 75.6188C60.1127 76.2999 60.9194 77.0384 61.8206 77.6541C66.9876 81.1881 72.2366 84.6173 77.3432 88.2234C87.587 95.4575 96.239 104.34 105.432 112.662C107.549 114.579 108.351 114.625 110.874 113.003C122.587 105.481 134.327 97.9991 146.095 90.5578C148.459 89.0655 151.03 87.8761 153.504 86.5481C152.841 86.4113 152.151 86.5001 151.544 86.8003C137.821 92.9027 125.121 100.682 112.707 108.921C109.642 110.954 109.662 111.023 106.932 108.702C101.887 104.412 96.826 100.137 91.8404 95.7853C83.5375 88.6394 74.8718 81.926 65.8783 75.6715C57.7221 69.9134 49.9545 63.669 42.0454 57.6044C37.9319 54.4506 33.9303 51.1653 29.7766 48.0543C28.0982 46.9538 26.3546 45.9563 24.5553 45.0671ZM29.7188 32.9835C34.2184 32.0007 38.6047 30.8692 43.0503 30.1215C47.6533 29.3471 52.3854 28.7327 56.8079 30.4555C67.9897 34.6661 78.8339 39.7231 89.2468 45.5825C98.8605 51.1384 108.219 57.0826 117.599 62.9817C121.853 65.6567 126.274 68.1659 129.708 71.8715C130.048 72.2391 131.398 72.1298 132.039 71.8025C133.535 71.0401 134.796 69.8373 136.306 69.1156C143.277 65.801 150.694 63.5215 158.323 62.3491C170.644 60.4834 183.175 60.4583 195.504 62.2749C196.183 62.3701 196.84 62.5803 197.509 62.7376C189.058 62.8008 180.645 63.8746 172.449 65.936C154.794 70.4124 138.112 78.0937 123.233 88.5977C121.749 89.6302 120.55 89.8638 119.276 88.5611C119.02 88.3212 118.737 88.1124 118.433 87.9391C108.289 81.6019 98.1899 75.1986 87.9748 68.956C79.1133 63.5371 70.1259 58.297 61.1917 52.9815C55.5912 49.6496 49.9083 46.4278 44.4051 42.9643C39.692 40.0033 35.171 36.7744 30.5703 33.657C30.2059 33.4099 29.8782 33.1106 29.7188 32.9835ZM231.399 76.9194C230.664 77.1735 230.108 77.4242 229.523 77.5581C222.306 79.2177 215.074 80.8214 207.861 82.519C195.529 85.3004 183.415 88.9733 171.614 93.5089C158.925 98.495 146.516 104.164 134.439 110.491C127.645 113.871 121.279 118.051 115.477 122.942C124.429 118.252 132.915 113.504 141.681 109.297C150.468 105.083 159.509 101.359 168.483 97.522C178.784 93.1169 193.771 88.464 196.164 88.9687C183.283 92.7197 170.767 97.6239 158.766 103.622C146.859 109.539 134.72 115.068 124.026 122.999C128.335 120.822 132.568 118.516 136.781 116.18C150.251 108.713 164.422 102.703 178.798 97.137C183.72 95.2313 188.856 93.8365 193.718 91.8071C206.182 86.6585 219.261 83.1464 232.627 81.3585C236.395 80.836 240.268 81.1829 244.092 81.1309C244.091 81.3051 244.091 81.4801 244.09 81.6556C243.934 81.7344 243.767 81.7886 243.594 81.8163C236.983 81.748 230.399 82.6982 224.077 84.6336C214.035 87.6998 203.92 90.5308 193.848 93.4994C192.939 93.8422 192.059 94.2563 191.215 94.7376C199.45 92.7368 207.515 90.3778 215.678 88.4345C223.879 86.3576 232.285 85.2002 240.742 84.9833C217.068 88.9284 193.79 94.4655 171.761 104.052C149.785 113.617 129.993 126.692 111.579 141.752C111.431 141.546 111.305 141.326 111.203 141.095C110.338 134.596 109.462 128.09 108.647 121.58C108.62 121.3 108.65 121.017 108.735 120.75C108.82 120.482 108.959 120.234 109.143 120.022C110.587 118.426 112.201 116.993 113.956 115.748C122.486 110.513 131.026 105.269 139.749 100.342C155.237 91.5963 171.102 83.5757 188.2 78.1185C200.914 74.0604 213.859 71.653 227.199 72.0296C228.165 72.0564 229.13 72.1063 230.089 72.1919C230.968 72.267 231.839 72.4104 232.906 72.5487C211.372 74.4912 191.131 80.5901 171.183 87.8553C156.635 93.1546 118.051 115.223 116.671 119.096C151.264 95.4301 188.592 79.2279 231.396 76.9214L231.399 76.9194ZM344.833 3.30437C344.43 3.53659 344.04 3.79333 343.625 3.99689C334.224 8.59655 324.833 13.2123 315.412 17.7737C312.522 19.2829 309.538 20.6039 306.478 21.7286C302.308 23.0104 298.403 25.0308 294.948 27.6934C291.02 30.8464 287.174 34.0944 283.325 37.3329C282.378 38.1304 281.561 39.0658 280.684 39.9378L281.029 40.3693C285.903 38.7301 290.649 36.651 295.941 36.6757C301.084 36.7039 306.239 36.466 311.383 38.2447C294.839 49.0071 278.13 59.0681 263.458 71.803C272.268 62.6072 282.954 55.5713 293.251 48.0763C282.443 54.3102 272.079 61.2852 262.234 68.9514C266.395 63.5697 271.647 59.1961 276.633 54.5532C269.69 59.4273 263.289 65.0286 257.536 71.262L257.068 70.8523L267.113 59.8548L266.73 59.5112L253.973 70.8133C258.717 60.2224 268.569 52.3146 276.378 42.9188L258.578 60.3569L258.131 60.0222L266.01 48.9893L265.85 48.849L256.112 59.3169C270.765 37.9928 312.804 6.94438 334.994 1.2154C322.87 6.99982 310.585 12.5137 300.244 21.2058C309.977 14.9622 320.273 9.64249 330.996 5.31602C323.381 9.57073 315.571 13.5065 308.596 18.7979C320.66 13.5919 331.868 6.53923 344.83 3.30608L344.833 3.30437ZM248.999 53.9976L248.314 53.6088C250.236 45.2521 254.784 38.0323 260.091 31.2355C265.194 24.6981 270.664 18.4096 275.982 12.0178C285.753 0.275837 297.657 -9.33577 310.01 -18.4846C310.94 -19.1287 312.075 -19.4064 313.197 -19.2644C319.357 -18.0032 325.471 -16.5714 331.59 -15.1576C334.099 -14.5784 336.585 -13.908 339.055 -13.2813C333.438 -11.0826 327.795 -9.29306 322.553 -6.731C313.266 -2.19077 304.083 2.59079 295.114 7.69379C285.956 12.8945 277.413 19.1123 269.65 26.2289C263.269 32.2037 257.742 39.03 253.226 46.515C251.712 48.9577 250.401 51.5022 248.997 54.0003L248.999 53.9976ZM267.305 31.5573C267.15 31.3918 266.996 31.2262 266.841 31.0606C267.787 30.02 268.661 28.9158 269.69 27.9505C276.613 21.5297 284.152 15.8064 292.197 10.8636C303.219 4.0285 314.207 -2.86784 326.467 -7.59609C331.285 -9.45445 336.029 -11.4716 341.159 -12.3346C342.008 -12.5846 342.915 -12.5517 343.744 -12.2407C345.947 -10.6663 347.967 -8.8658 350.107 -7.10665C346.592 -5.9281 343.243 -5.02416 340.074 -3.70447C327.548 1.62991 315.394 7.8006 303.696 14.7657C296.431 19.0122 289.695 24.1502 282.968 29.1845C271.929 37.3094 262.047 46.8985 253.594 57.6881C251.988 59.7682 250.404 61.8621 248.779 63.9896C248.736 63.8283 248.658 63.7115 248.69 63.6355C251.987 56.8857 256.215 50.6315 261.249 45.0556C267.967 37.956 275.407 31.5767 283.449 26.0215C297.299 16.0026 312.005 7.22388 327.396 -0.212944C331.088 -1.97432 334.728 -3.84389 338.391 -5.66372L338.026 -6.25229C310.241 5.73782 284.536 20.8989 261.702 40.463C271.583 29.1876 284.122 20.9082 296.599 12.5412C309.201 4.23301 322.507 -2.95676 336.363 -8.94583C310.901 0.647744 287.683 13.831 267.303 31.5588L267.305 31.5573ZM367.976 52.8971C367.15 52.7168 366.789 52.6803 366.463 52.5616C359.663 50.0803 352.82 47.6988 346.09 45.0673C340.631 42.9327 335.463 40.2461 329.588 38.9654C318.084 36.4584 306.543 34.5474 294.555 35.839C293.032 36.0029 291.509 36.1586 289.985 36.3186L289.962 35.8445C298.364 31.9825 307.047 33.99 315.707 34.1397L307.767 32.2539L307.91 31.729L326.517 35.4442L326.549 35.2844L312.122 30.8296L312.308 30.2766L339.935 37.3966L340.132 36.797L327.478 32.4238L327.661 31.9999C331.051 32.9135 334.496 33.6879 337.814 34.7771C342.283 36.2474 346.783 37.3331 347.806 36.9885L322.458 28.0521L322.703 27.331C323.922 27.562 325.127 27.8611 326.313 28.227C329.266 29.3084 332.166 30.5105 335.105 31.6246C335.607 31.7501 336.122 31.8164 336.64 31.8219L336.751 31.4225L330.397 28.7285L330.597 28.3394C332.592 29.0739 334.588 29.808 336.584 30.5415C341.657 32.3976 346.658 34.4425 351.824 36.0584C358.775 38.2329 366.059 38.6105 373.423 38.2225C374.24 38.1795 375.055 38.2695 375.872 38.2981L375.871 38.7536C370.527 39.8407 365.18 40.916 359.842 42.0314C359.364 42.1317 358.676 42.4073 358.554 42.7424C358.422 43.104 358.758 43.688 359.042 44.0715C359.409 44.4424 359.803 44.7867 360.219 45.102C362.689 47.5761 365.157 50.0653 367.975 52.8985L367.976 52.8971ZM244.142 57.1626L243.894 57.1194C244.185 55.746 244.462 54.3701 244.769 52.9998C247.277 41.8517 253.23 32.0695 259.614 22.5733C264.346 15.7008 269.424 9.07402 274.83 2.71875C281.851 -5.80337 290.173 -13.1633 299.49 -19.0892C304.229 -22.0806 309.11 -24.8629 313.864 -27.8334C315.554 -28.8051 317.429 -29.412 319.367 -29.6149C321.306 -29.8178 323.266 -29.6123 325.12 -29.0115C324.779 -28.8092 324.471 -28.621 324.16 -28.4432C318.819 -25.3918 313.306 -22.5841 308.169 -19.2448C294.667 -10.4691 283.132 0.377861 272.779 12.3432C267.963 17.9099 263.491 23.7444 258.899 29.482C254.251 35.284 249.827 41.2177 247.311 48.165C246.223 51.1583 245.193 54.1648 244.141 57.164L244.142 57.1626ZM335.829 27.3239C335.773 27.0953 335.717 26.8663 335.661 26.637C339.108 24.4319 342.561 22.2511 345.991 20.0197C354.576 14.4306 363.148 8.82146 371.706 3.19213C372.233 2.84353 372.898 2.04399 372.805 1.6186C372.667 1.29606 372.465 1.00518 372.21 0.763727C371.956 0.522271 371.655 0.335306 371.326 0.214533C369.091 -0.724956 366.733 -1.42331 364.533 -2.42284C362.257 -3.45575 360.11 -4.73245 357.752 -5.98886C358.169 -6.2218 358.28 -6.33757 358.365 -6.32326C365.068 -5.21151 371.589 -3.1956 377.75 -0.330698C378.999 0.219921 378.892 1.01365 377.867 1.77099C373.464 5.02259 369.227 8.51915 364.597 11.4381C356.131 16.7781 347.445 21.799 338.798 26.8686C338.006 27.3389 336.826 27.1902 335.827 27.3256L335.829 27.3239ZM340.167 8.78817L324.547 17.8811C324.65 18.0606 324.753 18.24 324.858 18.4253L330.938 15.8631C325.512 19.6995 320.274 24.2412 312.793 20.9413C321.446 15.9042 330.625 11.8296 340.164 8.79L340.167 8.78817ZM322.48 22.5449C325.647 19.7946 349.366 8.39908 352.423 8.22757C351.965 8.55727 351.67 8.82488 351.333 9.01983C343.972 13.2714 336.549 17.4248 329.276 21.8091C326.979 23.1901 324.946 23.8461 322.477 22.5457L322.48 22.5449ZM61.1748 79.6899L28.9925 52.5409C41.5677 59.6459 51.9881 69.0143 61.172 79.6907L61.1748 79.6899ZM327.847 23.7879L356.121 8.59442L356.381 8.99999C356.006 9.27564 355.645 9.56908 355.255 9.81976C347.958 14.6009 340.66 19.3802 333.361 24.1576C331.453 25.4127 330.065 25.3581 327.844 23.7886L327.847 23.7879ZM259.672 79.2743C259.941 79.3248 260.206 79.392 260.467 79.4753C261.194 79.7463 261.911 80.0417 262.631 80.3269C262.284 81.0395 261.832 81.6961 261.29 82.2749C259.578 83.6861 257.772 84.9794 255.885 86.1459C251.685 88.6297 247.417 91.005 243.123 93.3356C241.575 94.1753 240.844 93.7169 240.681 92.314C242.046 92.1721 243.391 91.8769 244.69 91.4338C247.858 89.9477 250.974 88.3346 253.994 86.5878C256.76 84.9867 259.144 82.988 259.413 79.613C259.41 79.5194 259.538 79.4282 259.668 79.2744L259.672 79.2743ZM69.2513 86.8227L69.7722 86.3063L92.9481 106.196L92.3434 106.822L69.2513 86.8227ZM233.259 100.501L232.689 100.893L228.013 99.4474C229.521 98.3896 230.867 97.0007 232.483 97.9114C233.078 98.2509 233.014 99.6089 233.254 100.502L233.259 100.501Z" fill="black"/>
</svg>
