<svg width="436" height="482" viewBox="0 0 436 482" fill="none" xmlns="http://www.w3.org/2000/svg">
<g clip-path="url(#clip0)">
<path opacity="0.1" d="M94.552 0.364287C80.5317 -0.373086 65.8863 -0.891551 53.2091 7.69193C40.532 16.2754 30.7307 37.0716 34.982 56.1915C36.3695 62.4246 39.0719 67.8569 41.3508 73.5313C52.7453 101.909 53.2737 138.587 42.7101 167.615C34.5786 189.961 20.7963 206.967 10.874 227.786C0.951723 248.605 -4.68704 277.461 5.07391 298.436C11.7573 312.797 24.1602 319.785 36.1759 321.479C48.1915 323.172 60.2757 320.505 72.3438 319.82C95.8274 318.531 119.211 324.847 140.743 338.294C170.385 356.855 195.921 388.608 227.132 400.861C230.879 402.33 234.795 403.517 238.627 402.521C245.423 400.752 250.364 392.727 255.684 386.391C272.669 366.303 296.184 362.553 318.231 361.619C340.278 360.686 363.24 361.406 383.17 347.886C400.57 336.082 413.965 314.122 422.294 289.317C430.623 264.511 434.241 236.946 435.605 209.496C436.411 193.158 436.383 176.291 432.289 160.996C427.687 143.801 418.353 130.107 408.564 118.137C398.335 105.624 387.187 94.2872 374.558 87.5356C359.473 79.4706 343.097 78.3184 327.036 76.4059C294.101 72.4773 261.422 64.9821 229.281 53.9851C198.776 43.5697 165.283 32.1923 137.5 10.9755C123.557 0.323962 110.27 1.17079 94.552 0.364287Z" fill="#D25659"/>
<g opacity="0.1">
<path opacity="0.1" d="M287.94 362.736C287.94 362.736 289.368 334.157 300.63 318.574C305.384 312.082 308.535 303.561 309.608 294.293C310.093 289.887 310.296 285.427 310.213 280.968" fill="#D25659"/>
<path opacity="0.1" d="M317.267 271.088C316.441 274.245 310.048 281.262 310.048 281.262C310.048 281.262 308.434 269.976 309.269 266.82C309.665 265.305 310.467 264.077 311.497 263.406C312.527 262.735 313.702 262.676 314.763 263.242C315.823 263.808 316.683 264.953 317.153 266.424C317.623 267.896 317.664 269.573 317.267 271.088V271.088Z" fill="#D25659"/>
<path opacity="0.1" d="M319.309 292.098C317.414 294.102 309.379 295.03 309.379 295.03C309.379 295.03 312.323 284.309 314.219 282.299C315.13 281.386 316.255 281.018 317.353 281.271C318.452 281.525 319.438 282.381 320.101 283.657C320.764 284.933 321.053 286.529 320.905 288.104C320.757 289.68 320.185 291.11 319.309 292.092V292.098Z" fill="#D25659"/>
<path opacity="0.1" d="M311.205 321.806C308.858 322.174 301.594 317.197 301.594 317.197C301.594 317.197 307.926 310.065 310.27 309.708C311.359 309.623 312.43 310.137 313.262 311.144C314.095 312.151 314.625 313.576 314.745 315.125C314.865 316.673 314.565 318.229 313.906 319.471C313.248 320.714 312.282 321.549 311.205 321.806Z" fill="#D25659"/>
<path opacity="0.1" d="M301.529 342.314C299.262 343.241 291.51 340.073 291.51 340.073C291.51 340.073 296.907 331.518 299.173 330.591C299.718 330.344 300.291 330.255 300.86 330.33C301.429 330.405 301.981 330.641 302.485 331.027C302.988 331.412 303.432 331.937 303.791 332.572C304.15 333.207 304.416 333.938 304.574 334.722C304.731 335.506 304.777 336.327 304.709 337.137C304.64 337.947 304.458 338.729 304.175 339.437C303.891 340.145 303.51 340.764 303.056 341.258C302.601 341.752 302.082 342.111 301.529 342.314V342.314Z" fill="#D25659"/>
<path opacity="0.1" d="M300.82 291.159C301.828 294.2 308.612 300.416 308.612 300.416C308.612 300.416 309.548 288.981 308.536 285.934C308.031 284.519 307.16 283.442 306.108 282.93C305.055 282.418 303.905 282.512 302.9 283.192C301.896 283.872 301.117 285.085 300.728 286.572C300.34 288.06 300.373 289.705 300.82 291.159V291.159Z" fill="#D25659"/>
<path opacity="0.1" d="M289.715 315.348C291.328 317.819 299.093 320.855 299.093 320.855C299.093 320.855 297.588 309.541 295.987 307.064C295.217 305.883 294.15 305.185 293.021 305.125C291.891 305.065 290.791 305.647 289.961 306.743C289.131 307.839 288.64 309.36 288.593 310.973C288.547 312.586 288.951 314.159 289.715 315.348V315.348Z" fill="#D25659"/>
<path opacity="0.1" d="M281.185 340.972C282.467 343.795 289.776 348.662 289.776 348.662C289.776 348.662 289.631 337.141 288.344 334.324C287.712 333.017 286.748 332.115 285.657 331.807C284.566 331.5 283.434 331.812 282.502 332.678C281.57 333.543 280.91 334.894 280.664 336.443C280.418 337.992 280.605 339.616 281.185 340.972Z" fill="#D25659"/>
<path opacity="0.1" d="M317.267 271.088C316.441 274.245 310.048 281.262 310.048 281.262C310.048 281.262 308.434 269.976 309.269 266.82C309.665 265.305 310.467 264.077 311.497 263.406C312.527 262.735 313.702 262.676 314.763 263.242C315.823 263.808 316.683 264.953 317.153 266.424C317.623 267.896 317.664 269.573 317.267 271.088V271.088Z" fill="#D25659"/>
<path opacity="0.1" d="M319.309 292.098C317.414 294.102 309.379 295.03 309.379 295.03C309.379 295.03 312.323 284.309 314.219 282.299C315.13 281.386 316.255 281.018 317.353 281.271C318.452 281.525 319.438 282.381 320.101 283.657C320.764 284.933 321.053 286.529 320.905 288.104C320.757 289.68 320.185 291.11 319.309 292.092V292.098Z" fill="#D25659"/>
<path opacity="0.1" d="M311.205 321.806C308.858 322.174 301.594 317.197 301.594 317.197C301.594 317.197 307.926 310.065 310.27 309.708C311.359 309.623 312.43 310.137 313.262 311.144C314.095 312.151 314.625 313.576 314.745 315.125C314.865 316.673 314.565 318.229 313.906 319.471C313.248 320.714 312.282 321.549 311.205 321.806Z" fill="#D25659"/>
<path opacity="0.1" d="M301.529 342.314C299.262 343.241 291.51 340.073 291.51 340.073C291.51 340.073 296.907 331.518 299.173 330.591C299.718 330.344 300.291 330.255 300.86 330.33C301.429 330.405 301.981 330.641 302.485 331.027C302.988 331.412 303.432 331.937 303.791 332.572C304.15 333.207 304.416 333.938 304.574 334.722C304.731 335.506 304.777 336.327 304.709 337.137C304.64 337.947 304.458 338.729 304.175 339.437C303.891 340.145 303.51 340.764 303.056 341.258C302.601 341.752 302.082 342.111 301.529 342.314V342.314Z" fill="#D25659"/>
<path opacity="0.1" d="M300.82 291.159C301.828 294.2 308.612 300.416 308.612 300.416C308.612 300.416 309.548 288.981 308.536 285.934C308.031 284.519 307.16 283.442 306.108 282.93C305.055 282.418 303.905 282.512 302.9 283.192C301.896 283.872 301.117 285.085 300.728 286.572C300.34 288.06 300.373 289.705 300.82 291.159V291.159Z" fill="#D25659"/>
<path opacity="0.1" d="M289.715 315.348C291.328 317.819 299.093 320.855 299.093 320.855C299.093 320.855 297.588 309.541 295.987 307.064C295.217 305.883 294.15 305.185 293.021 305.125C291.891 305.065 290.791 305.647 289.961 306.743C289.131 307.839 288.64 309.36 288.593 310.973C288.547 312.586 288.951 314.159 289.715 315.348V315.348Z" fill="#D25659"/>
<path opacity="0.1" d="M281.185 340.972C282.467 343.795 289.776 348.662 289.776 348.662C289.776 348.662 289.631 337.141 288.344 334.324C287.712 333.017 286.748 332.115 285.657 331.807C284.566 331.5 283.434 331.812 282.502 332.678C281.57 333.543 280.91 334.894 280.664 336.443C280.418 337.992 280.605 339.616 281.185 340.972Z" fill="#D25659"/>
</g>
<g opacity="0.1">
<path opacity="0.1" d="M291.893 254.561C291.893 254.561 293.32 225.982 304.582 210.399C309.334 203.905 312.485 195.385 313.56 186.118C314.049 181.712 314.251 177.252 314.165 172.793" fill="#D25659"/>
<path opacity="0.1" d="M321.219 162.913C320.413 166.064 314.004 173.081 314.004 173.081C314.004 173.081 312.39 161.796 313.221 158.645C313.618 157.13 314.419 155.902 315.449 155.231C316.479 154.56 317.654 154.501 318.715 155.067C319.775 155.633 320.635 156.778 321.105 158.249C321.575 159.721 321.616 161.399 321.219 162.913V162.913Z" fill="#D25659"/>
<path opacity="0.1" d="M323.273 183.917C321.381 185.927 313.343 186.849 313.343 186.849C313.343 186.849 316.287 176.134 318.183 174.124C318.632 173.62 319.147 173.251 319.697 173.036C320.248 172.822 320.823 172.767 321.388 172.876C321.954 172.984 322.499 173.253 322.99 173.667C323.482 174.081 323.91 174.631 324.25 175.286C324.591 175.94 324.835 176.685 324.971 177.477C325.106 178.269 325.129 179.091 325.037 179.896C324.946 180.701 324.743 181.471 324.44 182.161C324.137 182.852 323.74 183.449 323.273 183.917V183.917Z" fill="#D25659"/>
<path opacity="0.1" d="M315.157 213.631C312.814 214 305.55 209.022 305.55 209.022C305.55 209.022 311.882 201.896 314.226 201.533C314.789 201.43 315.36 201.488 315.908 201.704C316.455 201.92 316.966 202.289 317.412 202.79C317.858 203.292 318.23 203.915 318.505 204.624C318.78 205.333 318.954 206.113 319.016 206.919C319.078 207.724 319.027 208.54 318.866 209.317C318.704 210.094 318.436 210.818 318.077 211.446C317.718 212.073 317.275 212.592 316.773 212.972C316.272 213.352 315.723 213.586 315.157 213.66V213.631Z" fill="#D25659"/>
<path opacity="0.1" d="M305.481 234.139C303.214 235.066 295.462 231.898 295.462 231.898C295.462 231.898 300.863 223.343 303.125 222.41C304.209 221.988 305.366 222.193 306.345 222.981C307.323 223.768 308.046 225.074 308.355 226.617C308.664 228.159 308.535 229.813 307.997 231.221C307.458 232.629 306.553 233.677 305.477 234.139H305.481Z" fill="#D25659"/>
<path opacity="0.1" d="M304.771 182.978C305.779 186.026 312.568 192.241 312.568 192.241C312.568 192.241 313.499 180.801 312.491 177.759C312.258 177.019 311.924 176.353 311.509 175.8C311.094 175.247 310.605 174.817 310.072 174.537C309.539 174.257 308.973 174.131 308.405 174.167C307.838 174.203 307.281 174.4 306.768 174.747C306.255 175.094 305.795 175.584 305.416 176.188C305.037 176.792 304.746 177.497 304.56 178.264C304.374 179.03 304.297 179.842 304.333 180.651C304.369 181.461 304.518 182.252 304.771 182.978V182.978Z" fill="#D25659"/>
<path opacity="0.1" d="M293.667 207.167C295.28 209.644 303.049 212.675 303.049 212.675C303.049 212.675 301.54 201.36 299.939 198.889C299.162 197.749 298.104 197.087 296.991 197.044C295.877 197.002 294.796 197.583 293.978 198.662C293.16 199.742 292.669 201.236 292.611 202.824C292.553 204.413 292.932 205.972 293.667 207.167V207.167Z" fill="#D25659"/>
<path opacity="0.1" d="M285.136 232.797C286.423 235.62 293.728 240.487 293.728 240.487C293.728 240.487 293.582 228.966 292.296 226.149C291.998 225.453 291.606 224.849 291.142 224.373C290.678 223.897 290.152 223.559 289.595 223.379C289.038 223.198 288.462 223.179 287.899 223.323C287.337 223.466 286.801 223.769 286.322 224.214C285.843 224.658 285.432 225.235 285.112 225.911C284.792 226.587 284.57 227.347 284.46 228.147C284.349 228.948 284.352 229.771 284.468 230.57C284.585 231.369 284.812 232.126 285.136 232.797Z" fill="#D25659"/>
<path opacity="0.1" d="M321.219 162.913C320.413 166.064 314.004 173.081 314.004 173.081C314.004 173.081 312.39 161.796 313.221 158.645C313.618 157.13 314.419 155.902 315.449 155.231C316.479 154.56 317.654 154.501 318.715 155.067C319.775 155.633 320.635 156.778 321.105 158.249C321.575 159.721 321.616 161.399 321.219 162.913V162.913Z" fill="#D25659"/>
<path opacity="0.1" d="M323.273 183.917C321.381 185.927 313.343 186.849 313.343 186.849C313.343 186.849 316.287 176.134 318.183 174.124C318.632 173.62 319.147 173.251 319.697 173.036C320.248 172.822 320.823 172.767 321.388 172.876C321.954 172.984 322.499 173.253 322.99 173.667C323.482 174.081 323.91 174.631 324.25 175.286C324.591 175.94 324.835 176.685 324.971 177.477C325.106 178.269 325.129 179.091 325.037 179.896C324.946 180.701 324.743 181.471 324.44 182.161C324.137 182.852 323.74 183.449 323.273 183.917V183.917Z" fill="#D25659"/>
<path opacity="0.1" d="M315.157 213.631C312.814 214 305.55 209.022 305.55 209.022C305.55 209.022 311.882 201.896 314.226 201.533C314.789 201.43 315.36 201.488 315.908 201.704C316.455 201.92 316.966 202.289 317.412 202.79C317.858 203.292 318.23 203.915 318.505 204.624C318.78 205.333 318.954 206.113 319.016 206.919C319.078 207.724 319.027 208.54 318.866 209.317C318.704 210.094 318.436 210.818 318.077 211.446C317.718 212.073 317.275 212.592 316.773 212.972C316.272 213.352 315.723 213.586 315.157 213.66V213.631Z" fill="#D25659"/>
<path opacity="0.1" d="M305.481 234.139C303.214 235.066 295.462 231.898 295.462 231.898C295.462 231.898 300.863 223.343 303.125 222.41C304.209 221.988 305.366 222.193 306.345 222.981C307.323 223.768 308.046 225.074 308.355 226.617C308.664 228.159 308.535 229.813 307.997 231.221C307.458 232.629 306.553 233.677 305.477 234.139H305.481Z" fill="#D25659"/>
<path opacity="0.1" d="M304.771 182.978C305.779 186.026 312.568 192.241 312.568 192.241C312.568 192.241 313.499 180.801 312.491 177.759C312.258 177.019 311.924 176.353 311.509 175.8C311.094 175.247 310.605 174.817 310.072 174.537C309.539 174.257 308.973 174.131 308.405 174.167C307.838 174.203 307.281 174.4 306.768 174.747C306.255 175.094 305.795 175.584 305.416 176.188C305.037 176.792 304.746 177.497 304.56 178.264C304.374 179.03 304.297 179.842 304.333 180.651C304.369 181.461 304.518 182.252 304.771 182.978V182.978Z" fill="#D25659"/>
<path opacity="0.1" d="M293.667 207.167C295.28 209.644 303.049 212.675 303.049 212.675C303.049 212.675 301.54 201.36 299.939 198.889C299.162 197.749 298.104 197.087 296.991 197.044C295.877 197.002 294.796 197.583 293.978 198.662C293.16 199.742 292.669 201.236 292.611 202.824C292.553 204.413 292.932 205.972 293.667 207.167V207.167Z" fill="#D25659"/>
<path opacity="0.1" d="M285.136 232.797C286.423 235.62 293.728 240.487 293.728 240.487C293.728 240.487 293.582 228.966 292.296 226.149C291.998 225.453 291.606 224.849 291.142 224.373C290.678 223.897 290.152 223.559 289.595 223.379C289.038 223.198 288.462 223.179 287.899 223.323C287.337 223.466 286.801 223.769 286.322 224.214C285.843 224.658 285.432 225.235 285.112 225.911C284.792 226.587 284.57 227.347 284.46 228.147C284.349 228.948 284.352 229.771 284.468 230.57C284.585 231.369 284.812 232.126 285.136 232.797Z" fill="#D25659"/>
</g>
<g opacity="0.1">
<path opacity="0.1" d="M77.9222 292.006C77.9222 292.006 60.6953 277.339 56.0044 255.978C54.0832 246.994 50.1708 239.143 44.856 233.609C42.3182 231.006 39.6178 228.742 36.7891 226.846" fill="#D25659"/>
<path opacity="0.1" d="M33.7845 213.389C35.3979 215.86 36.9023 227.174 36.9023 227.174C36.9023 227.174 29.1218 224.15 27.5205 221.679C26.7871 220.484 26.409 218.927 26.4667 217.341C26.5243 215.754 27.0132 214.262 27.8292 213.182C28.6452 212.102 29.7241 211.519 30.8363 211.558C31.9485 211.597 33.0062 212.253 33.7845 213.389Z" fill="#D25659"/>
<path opacity="0.1" d="M47.8402 220.261C48.2436 223.579 45.2104 234.248 45.2104 234.248C45.2104 234.248 39.8298 225.671 39.4264 222.352C39.3149 221.554 39.3162 220.732 39.4304 219.935C39.5447 219.138 39.7694 218.381 40.0915 217.71C40.4136 217.038 40.8265 216.466 41.3059 216.026C41.7853 215.586 42.3215 215.287 42.8829 215.147C43.4443 215.008 44.0196 215.03 44.5748 215.213C45.1301 215.396 45.6542 215.736 46.1161 216.212C46.5781 216.689 46.9686 217.292 47.2647 217.988C47.5608 218.683 47.7565 219.456 47.8402 220.261V220.261Z" fill="#D25659"/>
<path opacity="0.1" d="M62.7811 243.926C61.9744 247.083 55.5653 254.106 55.5653 254.106C55.5653 254.106 53.9519 242.82 54.7788 239.669C54.963 238.897 55.2537 238.186 55.6337 237.577C56.0137 236.968 56.4754 236.475 56.9913 236.125C57.5072 235.776 58.067 235.577 58.6375 235.542C59.208 235.507 59.7777 235.636 60.3128 235.92C60.8479 236.205 61.3377 236.64 61.753 237.2C62.1684 237.759 62.501 238.432 62.7311 239.179C62.9612 239.925 63.0842 240.73 63.0928 241.545C63.1014 242.361 62.9954 243.17 62.7811 243.926V243.926Z" fill="#D25659"/>
<path opacity="0.1" d="M71.2549 265.489C70.8193 268.801 65.35 277.293 65.35 277.293C65.35 277.293 62.4257 266.56 62.8653 263.254C62.9694 262.467 63.181 261.717 63.488 261.047C63.7949 260.377 64.1913 259.8 64.6544 259.349C65.1175 258.898 65.6383 258.581 66.1871 258.417C66.7359 258.254 67.3018 258.246 67.8527 258.395C68.4036 258.543 68.9286 258.845 69.3977 259.284C69.8668 259.722 70.2708 260.288 70.5867 260.95C70.9027 261.611 71.1243 262.355 71.2389 263.139C71.3536 263.923 71.359 264.731 71.2549 265.518V265.489Z" fill="#D25659"/>
<path opacity="0.1" d="M38.9431 243.397C41.2986 243.477 48.2402 237.636 48.2402 237.636C48.2402 237.636 41.5043 231.299 39.1447 231.218C38.0264 231.212 36.951 231.832 36.1494 232.946C35.3478 234.06 34.884 235.578 34.8576 237.175C34.8312 238.772 35.2443 240.32 36.0082 241.486C36.7721 242.653 37.8258 243.345 38.9431 243.414V243.397Z" fill="#D25659"/>
<path opacity="0.1" d="M49.0793 268.438C51.3461 267.505 56.7428 258.945 56.7428 258.945C56.7428 258.945 48.9906 255.782 46.7238 256.715C45.6592 257.191 44.7673 258.243 44.2387 259.646C43.71 261.049 43.5866 262.692 43.8948 264.223C44.203 265.754 44.9183 267.052 45.8879 267.84C46.8574 268.628 48.0043 268.842 49.0833 268.438H49.0793Z" fill="#D25659"/>
<path opacity="0.1" d="M61.2681 290.842C63.6156 290.473 69.9441 283.353 69.9441 283.353C69.9441 283.353 62.6839 278.364 60.3324 278.744C59.753 278.79 59.1862 279.004 58.6667 279.372C58.1471 279.741 57.6856 280.258 57.3105 280.89C56.9354 281.522 56.6545 282.257 56.485 283.05C56.3155 283.842 56.2609 284.676 56.3246 285.499C56.3883 286.323 56.569 287.12 56.8556 287.84C57.1421 288.561 57.5286 289.19 57.9913 289.69C58.4539 290.19 58.9832 290.55 59.5466 290.748C60.11 290.946 60.6958 290.978 61.2681 290.842V290.842Z" fill="#D25659"/>
<path opacity="0.1" d="M33.7845 213.389C35.3979 215.86 36.9023 227.174 36.9023 227.174C36.9023 227.174 29.1218 224.15 27.5205 221.679C26.7871 220.484 26.409 218.927 26.4667 217.341C26.5243 215.754 27.0132 214.262 27.8292 213.182C28.6452 212.102 29.7241 211.519 30.8363 211.558C31.9485 211.597 33.0062 212.253 33.7845 213.389Z" fill="#D25659"/>
<path opacity="0.1" d="M47.8402 220.261C48.2436 223.579 45.2104 234.248 45.2104 234.248C45.2104 234.248 39.8298 225.671 39.4264 222.352C39.3149 221.554 39.3162 220.732 39.4304 219.935C39.5447 219.138 39.7694 218.381 40.0915 217.71C40.4136 217.038 40.8265 216.466 41.3059 216.026C41.7853 215.586 42.3215 215.287 42.8829 215.147C43.4443 215.008 44.0196 215.03 44.5748 215.213C45.1301 215.396 45.6542 215.736 46.1161 216.212C46.5781 216.689 46.9686 217.292 47.2647 217.988C47.5608 218.683 47.7565 219.456 47.8402 220.261V220.261Z" fill="#D25659"/>
<path opacity="0.1" d="M62.7811 243.926C61.9744 247.083 55.5653 254.106 55.5653 254.106C55.5653 254.106 53.9519 242.82 54.7788 239.669C54.963 238.897 55.2537 238.186 55.6337 237.577C56.0137 236.968 56.4754 236.475 56.9913 236.125C57.5072 235.776 58.067 235.577 58.6375 235.542C59.208 235.507 59.7777 235.636 60.3128 235.92C60.8479 236.205 61.3377 236.64 61.753 237.2C62.1684 237.759 62.501 238.432 62.7311 239.179C62.9612 239.925 63.0842 240.73 63.0928 241.545C63.1014 242.361 62.9954 243.17 62.7811 243.926V243.926Z" fill="#D25659"/>
<path opacity="0.1" d="M71.2549 265.489C70.8193 268.801 65.35 277.293 65.35 277.293C65.35 277.293 62.4257 266.56 62.8653 263.254C62.9694 262.467 63.181 261.717 63.488 261.047C63.7949 260.377 64.1913 259.8 64.6544 259.349C65.1175 258.898 65.6383 258.581 66.1871 258.417C66.7359 258.254 67.3018 258.246 67.8527 258.395C68.4036 258.543 68.9286 258.845 69.3977 259.284C69.8668 259.722 70.2708 260.288 70.5867 260.95C70.9027 261.611 71.1243 262.355 71.2389 263.139C71.3536 263.923 71.359 264.731 71.2549 265.518V265.489Z" fill="#D25659"/>
<path opacity="0.1" d="M38.9431 243.397C41.2986 243.477 48.2402 237.636 48.2402 237.636C48.2402 237.636 41.5043 231.299 39.1447 231.218C38.0264 231.212 36.951 231.832 36.1494 232.946C35.3478 234.06 34.884 235.578 34.8576 237.175C34.8312 238.772 35.2443 240.32 36.0082 241.486C36.7721 242.653 37.8258 243.345 38.9431 243.414V243.397Z" fill="#D25659"/>
<path opacity="0.1" d="M49.0793 268.438C51.3461 267.505 56.7428 258.945 56.7428 258.945C56.7428 258.945 48.9906 255.782 46.7238 256.715C45.6592 257.191 44.7673 258.243 44.2387 259.646C43.71 261.049 43.5866 262.692 43.8948 264.223C44.203 265.754 44.9183 267.052 45.8879 267.84C46.8574 268.628 48.0043 268.842 49.0833 268.438H49.0793Z" fill="#D25659"/>
<path opacity="0.1" d="M61.2681 290.842C63.6156 290.473 69.9441 283.353 69.9441 283.353C69.9441 283.353 62.6839 278.364 60.3324 278.744C59.753 278.79 59.1862 279.004 58.6667 279.372C58.1471 279.741 57.6856 280.258 57.3105 280.89C56.9354 281.522 56.6545 282.257 56.485 283.05C56.3155 283.842 56.2609 284.676 56.3246 285.499C56.3883 286.323 56.569 287.12 56.8556 287.84C57.1421 288.561 57.5286 289.19 57.9913 289.69C58.4539 290.19 58.9832 290.55 59.5466 290.748C60.11 290.946 60.6958 290.978 61.2681 290.842V290.842Z" fill="#D25659"/>
</g>
<path opacity="0.1" d="M289.09 464.516C300.67 471.711 314.799 467.333 327.94 467.84C329.735 467.909 331.643 468.122 333.083 469.367C334.523 470.611 335.237 472.621 336.225 474.35C339.907 480.767 347.454 482.829 354.049 481.741C360.643 480.652 366.689 477.046 372.913 474.304C383.67 469.557 395.964 467.391 406.576 472.575C407.548 473.048 408.593 473.595 409.617 473.405C411.945 472.984 412.638 469.539 414.264 467.575C417.2 464.021 423.581 464.989 424.872 460.305C425.626 457.563 423.888 454.752 421.992 452.879C414.732 445.713 404.366 444.532 394.875 445.638C385.384 446.744 376.055 449.792 366.516 449.803C354.629 449.803 343.146 445.126 331.377 443.207C323.225 441.882 314.327 442.055 306.684 445.955C298.399 450.172 296.576 459.671 289.09 464.516Z" fill="#D25659"/>
<path opacity="0.1" d="M69.9443 442.447C89.7083 450.575 113.828 445.627 136.254 446.203C139.324 446.283 142.575 446.52 145.039 447.931C147.504 449.342 148.714 451.618 150.404 453.565C156.688 460.818 169.567 463.151 180.82 461.918C192.073 460.685 202.399 456.612 213.023 453.513C231.383 448.15 252.373 445.707 270.484 451.555C272.145 452.09 273.896 452.707 275.679 452.494C279.648 452.015 280.829 448.127 283.608 445.903C288.622 441.871 299.508 442.983 301.711 437.694C303.001 434.595 300.033 431.415 296.798 429.301C284.423 421.207 266.716 419.871 250.514 421.121C234.312 422.371 218.387 425.81 202.113 425.827C181.824 425.827 162.222 420.545 142.131 418.373C128.216 416.875 113.03 417.059 99.9815 421.484C85.8361 426.259 82.7183 436.991 69.9443 442.447Z" fill="#D25659"/>
<path opacity="0.1" d="M17.041 462.367C22.6878 467.218 29.5447 464.268 35.9418 464.608C36.817 464.654 37.7447 464.798 38.4465 465.634C39.1484 466.469 39.4952 467.834 39.9752 468.998C41.7661 473.324 45.4365 474.718 48.6431 473.981C51.8497 473.244 54.7941 470.818 57.8233 468.963C63.0667 465.766 69.0403 464.309 74.1991 467.811C74.6411 468.215 75.1591 468.416 75.6834 468.387C76.8127 468.099 77.1515 465.778 77.9421 464.453C79.3699 462.056 82.4757 462.724 83.1009 459.55C83.4679 457.701 82.6209 455.806 81.7013 454.544C78.176 449.711 73.1262 448.916 68.5079 449.659C63.8896 450.402 59.3519 452.419 54.7094 452.419C48.9295 452.419 43.3432 449.267 37.6157 447.971C33.6467 447.073 29.3188 447.188 25.6 449.826C21.5706 452.707 20.6832 459.113 17.041 462.367Z" fill="#D25659"/>
<path d="M280.519 20.5485H93.1164C90.8622 20.5432 88.6294 21.1722 86.5455 22.3995C84.4616 23.6268 82.5674 25.4284 80.971 27.7014C79.3747 29.9744 78.1075 32.6743 77.2418 35.6468C76.3762 38.6194 75.929 41.8064 75.9258 45.0258V415.861C75.9354 422.36 77.7517 428.588 80.9753 433.174C84.1989 437.761 88.566 440.332 93.1164 440.321H280.519C282.773 440.326 285.006 439.697 287.089 438.47C289.173 437.243 291.068 435.441 292.664 433.168C294.26 430.895 295.527 428.195 296.393 425.223C297.259 422.25 297.706 419.063 297.709 415.844V45.0258C297.706 41.8064 297.259 38.6194 296.393 35.6468C295.527 32.6743 294.26 29.9744 292.664 27.7014C291.068 25.4284 289.173 23.6268 287.089 22.3995C285.006 21.1722 282.773 20.5432 280.519 20.5485Z" fill="url(#paint0_linear)"/>
<path d="M286.985 25.5776H86.6353C82.18 25.5776 78.5684 30.736 78.5684 37.0991V425.049C78.5684 431.413 82.18 436.571 86.6353 436.571H286.985C291.44 436.571 295.052 431.413 295.052 425.049V37.0991C295.052 30.736 291.44 25.5776 286.985 25.5776Z" fill="#535461"/>
<path d="M284.052 64.4509H89.5674V397.692H284.052V64.4509Z" fill="#F6F7F9"/>
<path d="M185.93 48.2C187.389 48.2 188.572 46.5106 188.572 44.4267C188.572 42.3428 187.389 40.6534 185.93 40.6534C184.471 40.6534 183.288 42.3428 183.288 44.4267C183.288 46.5106 184.471 48.2 185.93 48.2Z" fill="#F6F7F9"/>
<path d="M185.93 427.774C190.305 427.774 193.851 422.709 193.851 416.46C193.851 410.212 190.305 405.146 185.93 405.146C181.554 405.146 178.008 410.212 178.008 416.46C178.008 422.709 181.554 427.774 185.93 427.774Z" fill="#F6F7F9"/>
<g opacity="0.2">
<path opacity="0.2" d="M284.052 64.4509H89.5674V81.0591H284.052V64.4509Z" fill="#D25659"/>
</g>
<path d="M95.6495 76.3008C97.0195 76.3008 98.1301 74.7146 98.1301 72.7579C98.1301 70.8013 97.0195 69.2151 95.6495 69.2151C94.2795 69.2151 93.1689 70.8013 93.1689 72.7579C93.1689 74.7146 94.2795 76.3008 95.6495 76.3008Z" fill="#F6F7F9"/>
<path d="M101.97 76.3008C103.34 76.3008 104.45 74.7146 104.45 72.7579C104.45 70.8013 103.34 69.2151 101.97 69.2151C100.6 69.2151 99.4893 70.8013 99.4893 72.7579C99.4893 74.7146 100.6 76.3008 101.97 76.3008Z" fill="#F6F7F9"/>
<path d="M108.286 76.3008C109.656 76.3008 110.767 74.7146 110.767 72.7579C110.767 70.8013 109.656 69.2151 108.286 69.2151C106.916 69.2151 105.806 70.8013 105.806 72.7579C105.806 74.7146 106.916 76.3008 108.286 76.3008Z" fill="#F6F7F9"/>
<path d="M276.481 162.412H95.375V163.276H276.481V162.412Z" fill="#DCE0ED"/>
<path d="M276.481 182.477H95.375V183.341H276.481V182.477Z" fill="#DCE0ED"/>
<path d="M276.481 202.547H95.375V203.411H276.481V202.547Z" fill="#DCE0ED"/>
<path d="M276.481 222.612H95.375V223.476H276.481V222.612Z" fill="#DCE0ED"/>
<path d="M276.481 242.676H95.375V243.541H276.481V242.676Z" fill="#DCE0ED"/>
<g opacity="0.2">
<path opacity="0.2" d="M276.48 243.541H95.1523V204.08L111.782 215.785L128.993 219.121L144.094 212.617L162.313 192.437L171.477 184.879L178.177 183.036L184.586 183.525L195.125 190.962L209.456 203.999L220.702 206.061L229.616 201.672L248.516 179.568L258.164 174.654L268.26 176.883L276.48 183.664V243.541Z" fill="#D25659"/>
</g>
<path d="M126.76 219.109C110.428 219.109 95.339 204.846 95.1494 204.661L95.6012 203.705C95.8351 203.93 119.06 225.872 138.795 214.881C145.991 210.848 151.114 204.638 156.071 198.607C161.246 192.31 166.13 186.365 172.793 183.785C180.433 180.829 188.782 183.502 195.127 190.951C200.552 197.316 211.353 207.536 222.764 204.483C228.58 202.922 233.481 196.856 238.672 190.432C248.622 178.116 258.916 165.379 276.719 183.652L276.247 184.585C258.96 166.842 248.917 179.28 239.2 191.302C233.924 197.829 228.943 203.976 222.913 205.612C211.176 208.757 200.148 198.33 194.614 191.838C188.471 184.631 180.396 182.045 173.003 184.896C166.517 187.408 161.709 193.272 156.591 199.483C151.585 205.577 146.411 211.874 139.09 215.952C135.154 218.094 130.972 219.165 126.76 219.109V219.109Z" fill="#D25659"/>
<path d="M182.521 189.39C185.001 189.39 187.011 186.519 187.011 182.978C187.011 179.437 185.001 176.566 182.521 176.566C180.042 176.566 178.032 179.437 178.032 182.978C178.032 186.519 180.042 189.39 182.521 189.39Z" fill="#D25659"/>
<g opacity="0.2">
<path opacity="0.2" d="M241.08 98.134H184.45C184.206 98.134 183.972 98.2724 183.8 98.5187C183.627 98.7651 183.53 99.0991 183.53 99.4475V154.146C183.531 154.409 183.586 154.665 183.69 154.883C183.793 155.1 183.94 155.268 184.111 155.365C184.283 155.462 184.47 155.483 184.65 155.426C184.83 155.369 184.993 155.236 185.119 155.044L194.933 140.095C195.019 139.964 195.122 139.86 195.237 139.788C195.353 139.717 195.477 139.68 195.602 139.68H241.08C241.323 139.68 241.557 139.542 241.73 139.296C241.902 139.049 241.999 138.715 241.999 138.367V99.436C241.997 99.0896 241.899 98.7585 241.727 98.5146C241.555 98.2708 241.322 98.134 241.08 98.134V98.134Z" fill="#D25659"/>
</g>
<path d="M228.886 108.261H196.639V114.022H228.886V108.261Z" fill="#F6F7F9"/>
<path d="M205.492 121.027H196.639V126.788H205.492V121.027Z" fill="#F6F7F9"/>
<g opacity="0.2">
<path opacity="0.2" d="M119.523 284.764H110.67V290.525H119.523V284.764Z" fill="#D25659"/>
</g>
<g opacity="0.2">
<path opacity="0.2" d="M119.523 295.9H110.67V301.661H119.523V295.9Z" fill="#D25659"/>
</g>
<g opacity="0.2">
<path opacity="0.2" d="M119.523 307.035H110.67V312.796H119.523V307.035Z" fill="#D25659"/>
</g>
<g opacity="0.2">
<path opacity="0.2" d="M119.523 318.176H110.67V323.937H119.523V318.176Z" fill="#D25659"/>
</g>
<g opacity="0.2">
<path opacity="0.2" d="M119.523 329.312H110.67V335.073H119.523V329.312Z" fill="#D25659"/>
</g>
<g opacity="0.2">
<path opacity="0.2" d="M119.523 340.447H110.67V346.208H119.523V340.447Z" fill="#D25659"/>
</g>
<g opacity="0.2">
<path opacity="0.2" d="M119.523 351.589H110.67V357.349H119.523V351.589Z" fill="#D25659"/>
</g>
<g opacity="0.2">
<path opacity="0.2" d="M119.523 362.724H110.67V368.485H119.523V362.724Z" fill="#D25659"/>
</g>
<g opacity="0.2">
<path opacity="0.2" d="M136.193 368.485H127.34V374.246H136.193V368.485Z" fill="#D25659"/>
</g>
<g opacity="0.2">
<path opacity="0.2" d="M151.791 368.485H142.938V374.246H151.791V368.485Z" fill="#D25659"/>
</g>
<g opacity="0.2">
<path opacity="0.2" d="M167.388 368.485H158.534V374.246H167.388V368.485Z" fill="#D25659"/>
</g>
<g opacity="0.2">
<path opacity="0.2" d="M182.981 368.485H174.128V374.246H182.981V368.485Z" fill="#D25659"/>
</g>
<g opacity="0.2">
<path opacity="0.2" d="M198.579 368.485H189.726V374.246H198.579V368.485Z" fill="#D25659"/>
</g>
<g opacity="0.2">
<path opacity="0.2" d="M214.177 368.485H205.323V374.246H214.177V368.485Z" fill="#D25659"/>
</g>
<g opacity="0.2">
<path opacity="0.2" d="M229.769 368.485H220.916V374.246H229.769V368.485Z" fill="#D25659"/>
</g>
<g opacity="0.2">
<path opacity="0.2" d="M245.367 368.485H236.514V374.246H245.367V368.485Z" fill="#D25659"/>
</g>
<g opacity="0.2">
<path opacity="0.2" d="M260.964 368.485H252.11V374.246H260.964V368.485Z" fill="#D25659"/>
</g>
<path d="M228.886 121.027H215.442V126.788H228.886V121.027Z" fill="#F6F7F9"/>
<path d="M136.193 326.622H127.34V362.724H136.193V326.622Z" fill="#D25659"/>
<path d="M151.791 309.916H142.938V362.724H151.791V309.916Z" fill="#D25659"/>
<path d="M167.388 295.9H158.534V362.724H167.388V295.9Z" fill="#D25659"/>
<path d="M182.981 303.164H174.128V362.718H182.981V303.164Z" fill="#D25659"/>
<path d="M198.579 290.525H189.726V362.724H198.579V290.525Z" fill="#D25659"/>
<g opacity="0.2">
<path opacity="0.2" d="M214.177 318.176H205.323V362.724H214.177V318.176Z" fill="#D25659"/>
</g>
<g opacity="0.2">
<path opacity="0.2" d="M229.769 318.176H220.916V362.724H229.769V318.176Z" fill="#D25659"/>
</g>
<g opacity="0.2">
<path opacity="0.2" d="M245.367 318.176H236.514V362.724H245.367V318.176Z" fill="#D25659"/>
</g>
<g opacity="0.2">
<path opacity="0.2" d="M260.964 318.176H252.11V362.724H260.964V318.176Z" fill="#D25659"/>
</g>
<path d="M399.102 156.98C389.514 149.105 385.892 147.152 385.872 147.14L385.678 146.939C384.633 145.792 383.801 144.294 383.258 142.578C383.258 142.261 383.258 141.95 383.258 141.639V141.731C383.412 137.56 385.489 133.764 387.461 130.452L392.499 121.983C393.073 121.147 393.516 120.146 393.798 119.045C393.902 118.456 393.948 117.849 393.935 117.242C393.935 116.995 393.935 116.747 393.935 116.505C393.911 114.402 393.866 112.294 393.814 110.168C393.765 108.33 393.435 106.015 392.148 105.634C391.478 105.439 390.595 105.784 390.24 104.96C390.121 104.624 390.091 104.237 390.155 103.872C390.154 103.9 390.154 103.929 390.155 103.958V103.854C390.406 102.436 390.567 100.988 390.635 99.528C390.661 98.7861 390.59 98.0439 390.426 97.339C389.68 94.2858 387.114 93.0357 384.843 92.4596C382.573 91.8836 380.031 91.3881 378.608 88.8534C378.168 88.07 377.87 87.1252 377.369 86.4166C376.712 85.5854 375.912 85.0205 375.05 84.7806C372.234 83.7865 369.266 84.1552 366.612 85.829C365.515 86.5261 364.414 87.4708 363.212 87.3671C362.01 87.2635 360.893 86.0249 359.659 85.7253C357.666 85.2414 355.758 87.3326 354.778 89.8039C354.196 91.2739 353.885 92.9311 353.875 94.6199C353.875 94.7121 353.875 94.81 353.875 94.9022C353.845 96.7176 354.309 98.4788 355.169 99.8161C356.028 101.089 357.311 101.965 357.666 103.641C357.811 104.321 357.775 105.058 357.904 105.75C357.904 105.836 357.94 105.922 357.96 106.003L357.896 106.124C355.839 109.889 354.726 114.53 354.734 119.305C354.755 123.937 355.807 128.439 357.738 132.161C359.668 135.883 362.378 138.631 365.475 140.009C365.475 140.222 365.475 140.441 365.475 140.654C365.475 143.269 364.954 145.936 363.389 147.901L349.813 155.701C349.813 155.701 341.629 154.313 338.677 171.399C338.201 174.236 338.03 177.159 338.168 180.069C338.277 182.644 338.027 187.183 335.93 193.053C332.57 202.443 333.336 224 340.201 226.137C346.683 228.154 349.22 227.289 349.478 227.215V227.589C349.373 231.622 348.345 266.526 344.606 270.748C343.573 271.901 343.767 272.707 344.606 273.237C344.606 273.237 344.606 273.462 344.582 273.865C344.469 276.417 343.892 286.135 341.391 291.666C338.491 298.066 338.793 334.998 338.793 334.998L336.845 356.791C336.845 356.791 338.055 370.236 336.845 372.587C335.756 374.678 334.304 424.433 334.022 435.211H333.893C333.295 435.263 332.716 435.522 332.205 435.967C331.693 436.412 331.266 437.029 330.961 437.763C329.347 441.485 323.741 448.357 323.741 448.357C322.531 450.829 318.017 453.191 315.633 454.308C315.314 454.455 315.006 454.648 314.714 454.884C313.823 455.578 313.108 456.654 312.669 457.961C312.514 458.346 312.414 458.772 312.376 459.213C312.338 459.654 312.362 460.102 312.447 460.53C313.06 462.661 325.725 464.153 328.928 462.022C331.449 460.34 341.431 458.133 345.574 457.269C346.326 457.133 347.025 456.643 347.562 455.878C348.098 455.113 348.442 454.115 348.538 453.041C348.575 452.667 348.558 452.286 348.489 451.922C348.419 451.558 348.299 451.217 348.135 450.921C347.328 449.515 346.925 445.684 346.752 443.184C347.088 442.99 347.402 442.724 347.683 442.395C347.343 434.64 348.122 426.868 349.97 419.56C353.024 408.038 353.939 386.683 353.197 372.811C353.197 372.811 362.506 315.607 369.831 310.267C369.944 310.469 373.497 316.99 373.949 337.158C374.409 357.649 379.596 371.095 379.596 371.095C379.596 371.095 377.305 405.889 379.596 418.909L376.599 439.451C376.381 439.181 376.24 438.973 376.24 438.973C376.24 438.973 376.329 439.549 376.454 440.459L376.389 440.892L376.518 440.938C376.857 443.507 377.361 447.983 377.156 450.61C377.035 452.102 376.752 454.153 376.543 456.163C376.228 459.326 376.139 462.391 377.305 463.076C379.213 464.171 390.43 465.668 392.338 462.149C392.766 461.431 393.044 460.556 393.143 459.624C393.241 458.691 393.155 457.738 392.894 456.872C392.755 456.388 392.568 455.936 392.338 455.53C392.338 455.53 389.361 448.576 390.2 443.674C390.279 443.195 390.289 442.697 390.228 442.213C390.167 441.728 390.036 441.266 389.845 440.857C389.974 438.449 390.652 427.313 392.414 417.854C394.322 407.583 398.351 385.064 395.387 370.253C395.274 369.677 395.145 369.101 395.008 368.525C393.297 360.442 392.727 351.953 393.33 343.552C392.229 336.379 392.229 328.95 393.33 321.777C395.161 309.823 396.44 298.083 396.44 298.083C396.44 298.083 397.452 282.293 396.569 272.609L396.508 271.987L396.992 271.831C396.992 271.831 394.399 255.396 393.483 244.94C393.265 242.469 392.983 239.341 392.676 236C393.522 235.807 394.354 235.512 395.165 235.118C403.377 231.045 405.959 194.338 405.959 194.338V182.701C405.959 182.701 408.717 164.878 399.102 156.98ZM337.713 440.448C337.458 440.264 337.309 440.143 337.309 440.143L337.713 440.448Z" fill="url(#paint1_linear)"/>
<path d="M394.128 368.836C397.702 383.515 393.531 407.335 391.595 417.97C389.659 428.604 389.062 441.375 389.062 441.375C381.467 443.075 375.958 440.943 375.958 440.943L379.084 419.053C376.849 406.079 379.084 371.406 379.084 371.406C379.084 371.406 374.022 358.006 373.574 337.584C373.134 317.479 369.665 310.987 369.54 310.785C362.393 316.103 353.306 373.116 353.306 373.116C354.052 386.942 353.157 408.211 350.18 419.698C348.374 426.994 347.615 434.734 347.945 442.458C346.905 443.714 345.457 443.927 343.892 443.57C339.653 442.562 334.566 437.331 334.566 437.331C334.566 437.331 336.18 375.225 337.39 372.88C338.6 370.536 337.39 357.136 337.39 357.136L339.322 335.441C339.322 335.441 339.027 298.636 341.855 292.236C344.299 286.723 344.86 277.039 344.969 274.499C344.969 274.095 344.993 273.871 344.993 273.871L349.301 266.497C349.301 266.497 391.006 262.032 394.132 266.497C394.903 267.597 395.375 270.086 395.657 273.225C396.516 282.875 395.532 298.613 395.532 298.613C395.532 298.613 394.282 310.313 392.495 322.232C391.418 329.382 391.418 336.777 392.495 343.927C391.902 352.303 392.456 360.763 394.128 368.836V368.836Z" fill="#65617D"/>
<path d="M391.523 462.114C389.66 465.622 378.713 464.13 376.849 463.041C375.712 462.367 375.801 459.314 376.107 456.163C376.301 454.158 376.587 452.131 376.704 450.627C377.002 446.796 375.809 439.031 375.809 439.031C375.809 439.031 378.269 442.752 378.862 439.031C379.124 437.406 380.04 436.571 380.988 436.15C382.265 435.603 383.636 435.725 384.856 436.496C386.788 437.694 390.019 440.252 389.438 443.708C388.631 448.594 391.523 455.524 391.523 455.524C391.747 455.93 391.929 456.38 392.063 456.86C392.319 457.723 392.403 458.669 392.308 459.595C392.213 460.521 391.941 461.393 391.523 462.114V462.114Z" fill="#A27772"/>
<path opacity="0.1" d="M391.523 462.114C389.659 465.622 378.713 464.13 376.849 463.041C375.712 462.367 375.8 459.314 376.107 456.163C377.281 456.947 379.281 457.603 382.613 457.16C383.392 457.056 384.175 457.021 384.956 457.056C387.326 457.212 389.7 457.144 392.063 456.854C392.319 457.718 392.404 458.665 392.309 459.592C392.214 460.52 391.942 461.392 391.523 462.114V462.114Z" fill="black"/>
<path opacity="0.1" d="M353.318 373.094C354.065 386.919 353.169 408.188 350.192 419.675C348.387 426.971 347.627 434.711 347.958 442.435C346.917 443.691 345.469 443.904 343.904 443.547C344.804 434.56 348.631 395.918 351.104 365.38C353.879 330.602 366.947 306.672 366.947 306.672L369.553 310.768C362.398 316.08 353.318 373.094 353.318 373.094Z" fill="black"/>
<path d="M387.054 149.525L385.235 162.285L376.329 183.663L365.346 176.964C365.346 176.964 350.422 154.629 359.8 151.438C360.924 151.095 361.984 150.42 362.914 149.456C364.757 147.475 365.334 144.588 365.334 141.766C365.334 137.105 363.809 132.612 363.809 132.612L383.021 123.971C382.227 127.576 381.763 131.314 381.641 135.089C381.496 142.578 383.44 146.242 385.033 147.999C385.63 148.693 386.316 149.212 387.054 149.525V149.525Z" fill="#FBBEBE"/>
<path opacity="0.1" d="M383.033 124C382.239 127.605 381.775 131.342 381.653 135.118C381.304 135.713 380.931 136.278 380.536 136.812C378.553 139.519 376.094 141.409 373.419 142.281C370.745 143.153 367.955 142.975 365.346 141.766C365.346 137.105 363.821 132.612 363.821 132.612L383.033 124Z" fill="black"/>
<path d="M385.234 120.491C385.234 124.783 384.342 128.978 382.671 132.545C381.001 136.113 378.628 138.892 375.851 140.533C373.074 142.173 370.019 142.601 367.073 141.761C364.126 140.922 361.42 138.853 359.296 135.816C357.173 132.779 355.728 128.912 355.144 124.702C354.56 120.492 354.864 116.13 356.016 112.166C357.168 108.203 359.118 104.816 361.618 102.435C364.118 100.055 367.056 98.7862 370.061 98.7908C372.057 98.7816 374.034 99.3369 375.88 100.425C377.725 101.512 379.401 103.111 380.812 105.128C382.222 107.145 383.339 109.542 384.098 112.178C384.857 114.815 385.244 117.64 385.234 120.491V120.491Z" fill="#FBBEBE"/>
<path opacity="0.1" d="M387.054 149.525L385.235 162.285L376.329 183.663L365.346 176.964C365.346 176.964 350.422 154.629 359.8 151.438C360.924 151.095 361.984 150.42 362.914 149.456C361.22 156.11 368.214 169.947 368.214 169.947C369.021 171.675 370.896 170.581 370.896 170.581C375.397 169.613 383.694 151.104 385.045 148.028C385.64 148.71 386.322 149.219 387.054 149.525V149.525Z" fill="black"/>
<path opacity="0.1" d="M395.653 273.26C393.011 274.118 378.378 278.75 372.828 277.592C366.725 276.313 354.851 275.466 354.851 275.466C354.851 275.466 347.292 276.043 344.965 274.533C344.965 274.13 344.989 273.905 344.989 273.905L349.297 266.532C349.297 266.532 391.003 262.067 394.129 266.532C394.899 267.62 395.371 270.109 395.653 273.26Z" fill="black"/>
<path d="M368.213 170.581C368.213 170.581 360.356 155.027 363.317 148.984L350.043 156.755C350.043 156.755 342.052 155.373 339.152 172.401C338.689 175.231 338.522 178.143 338.656 181.042C338.761 183.612 338.519 188.134 336.47 193.981C333.191 203.342 333.937 224.824 340.641 226.955C347.344 229.087 349.724 228.015 349.724 228.015C349.724 228.015 348.833 266.946 344.961 271.411C341.088 275.875 354.83 274.816 354.83 274.816C354.83 274.816 366.705 275.668 372.811 276.941C378.918 278.214 396.044 272.477 396.044 272.477C396.044 272.477 393.511 256.093 392.62 245.672C391.728 235.251 389.639 213.055 389.639 213.055L404.833 183.675C404.833 183.675 407.511 165.915 398.129 158.046C388.748 150.176 385.222 148.252 385.222 148.252C385.222 148.252 375.808 170.143 370.896 171.22C370.896 171.22 369.028 172.292 368.213 170.581Z" fill="#7C7CDD"/>
<path opacity="0.1" d="M350.789 176.751C350.789 176.751 350.64 183.773 351.531 186.544C352.422 189.315 355.702 204.627 355.702 204.627H348.256C348.256 204.627 352.289 198.457 351.979 195.479C351.668 192.5 350.789 176.751 350.789 176.751Z" fill="black"/>
<path d="M372.832 229.72C372.832 229.72 356.383 223.96 354.851 219.08C353.318 214.201 349.087 203.244 349.087 203.244L350.821 199.903L358.824 208.872C358.824 208.872 368.355 219.72 372.824 220.786C377.293 221.851 372.832 229.72 372.832 229.72Z" fill="#FBBEBE"/>
<path opacity="0.05" d="M372.832 229.72C372.832 229.72 356.383 223.96 354.851 219.08C353.318 214.201 349.087 203.244 349.087 203.244L350.821 199.903L358.824 208.872C358.824 208.872 368.355 219.72 372.824 220.786C377.293 221.851 372.832 229.72 372.832 229.72Z" fill="black"/>
<path d="M387.054 202.069V214.812H385.618C378.532 214.814 371.563 217.391 365.366 222.301L362.68 224.432L361.958 225.008L357.34 210.157L361.66 204.627H361.882C362.938 204.771 367.508 205.318 369.444 204.385C371.284 203.492 373.566 200.663 378.983 202.657C381.654 203.63 383.932 207.905 386.522 206.568L387.054 202.069Z" fill="#FBBEBE"/>
<path opacity="0.1" d="M401.425 178.882L404.406 183.664V195.26C404.406 195.26 401.873 231.846 393.83 235.89C385.787 239.934 371.432 233.546 371.432 233.546C371.432 233.546 367.721 219.507 369.456 218.66C371.19 217.813 384.783 212.68 384.783 212.68C384.783 212.68 384.593 191.216 387.57 184.833C387.57 184.833 385.634 164.843 392.338 164.417C399.041 163.991 401.425 178.882 401.425 178.882Z" fill="black"/>
<path d="M401.873 178.882L404.854 183.664V195.26C404.854 195.26 402.329 231.846 394.262 235.89C386.195 239.934 371.86 233.546 371.86 233.546C371.86 233.546 368.153 219.507 369.888 218.66C371.622 217.813 385.215 212.68 385.215 212.68C385.215 212.68 385.021 191.216 388.002 184.833C388.002 184.833 386.066 164.843 392.77 164.417C399.473 163.991 401.873 178.882 401.873 178.882Z" fill="#7C7CDD"/>
<path opacity="0.1" d="M381.067 129.709C381.128 128.309 381.148 126.828 380.729 125.567C380.309 124.305 379.325 123.297 378.365 123.619C377.091 124.046 376.542 126.413 375.292 126.984C374.239 127.462 373.089 126.408 372.589 124.99C372.089 123.573 372.073 121.937 372.069 120.382C372.069 118.608 372.069 116.828 372.069 115.053C372.069 113.118 372.025 111.021 371.19 109.511C370.153 107.616 367.713 106.792 366.083 106.867C364.998 106.885 363.957 107.486 363.167 108.549C362.296 109.604 361.288 110.387 360.098 110.105C359.603 109.998 359.14 109.693 358.762 109.226C358.384 108.76 358.106 108.149 357.96 107.466V107.397C359.226 105.008 360.826 103.019 362.657 101.556C364.488 100.093 366.512 99.1878 368.6 98.8974C370.689 98.6071 372.797 98.9379 374.791 99.869C376.785 100.8 378.623 102.311 380.188 104.307C381.754 106.303 383.012 108.741 383.885 111.466C384.758 114.191 385.226 117.145 385.26 120.142C385.293 123.138 384.892 126.112 384.081 128.876C383.27 131.64 382.067 134.134 380.547 136.201C380.806 134.052 380.98 131.885 381.067 129.709Z" fill="black"/>
<path d="M360.09 109.448C359.596 109.34 359.133 109.034 358.754 108.567C358.376 108.099 358.098 107.488 357.953 106.804C357.828 106.118 357.86 105.387 357.719 104.701C357.372 103.031 356.105 102.161 355.299 100.893C353.621 98.3472 353.73 94.1649 354.919 91.1002C355.879 88.6346 357.743 86.555 359.683 87.0331C360.893 87.3327 361.93 88.5597 363.152 88.6692C364.374 88.7786 365.398 87.8339 366.471 87.1368C369.053 85.4666 371.956 85.099 374.704 86.0941C375.548 86.3364 376.331 86.8996 376.97 87.7244C377.403 88.5025 377.807 89.312 378.18 90.1497C379.572 92.6786 382.057 93.1741 384.271 93.7444C386.485 94.3147 388.986 95.5648 389.716 98.6064C390.196 100.623 389.716 102.812 389.454 104.909C389.361 105.336 389.381 105.797 389.51 106.205C389.857 107.023 390.72 106.683 391.374 106.879C392.632 107.253 392.955 109.563 392.987 111.395C393.041 113.492 393.081 115.589 393.108 117.686C393.183 118.658 393.095 119.642 392.852 120.556C392.608 121.471 392.217 122.29 391.709 122.946L386.792 131.385C384.61 135.129 382.295 139.49 382.734 144.318C381.702 144.98 380.475 143.701 380.137 142.158C379.798 140.614 380.072 138.955 380.298 137.37C380.696 134.631 380.956 131.855 381.076 129.063C381.137 127.658 381.157 126.183 380.738 124.921C380.318 123.66 379.334 122.617 378.374 122.969C377.099 123.395 376.551 125.763 375.301 126.333C374.252 126.811 373.098 125.757 372.598 124.34C372.098 122.922 372.082 121.286 372.078 119.731V114.397C372.078 112.467 372.033 110.364 371.199 108.855C370.162 106.959 367.722 106.136 366.092 106.211C365.007 106.23 363.966 106.83 363.176 107.893C362.289 108.947 361.28 109.725 360.09 109.448Z" fill="#7C5C5C"/>
<path opacity="0.1" d="M363.523 176.221L368.186 203.584C368.186 203.584 371.865 203.555 363.523 176.221Z" fill="black"/>
<path opacity="0.1" d="M379.46 171.647C379.46 171.647 373.353 185.933 375.737 200.698L376.874 200.819C376.874 200.819 374.841 193.981 379.46 171.647Z" fill="black"/>
<path opacity="0.1" d="M383.331 252.481C383.331 252.481 390.829 248.938 391.374 257.159C391.374 257.159 389.958 251.525 383.331 252.481Z" fill="black"/>
<path opacity="0.1" d="M361.659 205.283C361.659 205.283 360.17 220.175 362.869 226.132C362.869 226.132 357.416 229.323 349.76 228.684L348.853 205.283H361.659Z" fill="black"/>
<path opacity="0.1" d="M362.68 224.427L361.958 225.003L357.34 210.151L361.66 204.621H361.882C361.813 205.335 360.611 218.124 362.68 224.427Z" fill="black"/>
<path d="M361.66 204.621C361.66 204.621 360.171 219.507 362.87 225.463C362.87 225.463 357.416 228.655 349.761 228.015L344.55 204.621H361.66Z" fill="#7C7CDD"/>
<path d="M348.776 453.058C348.69 454.119 348.359 455.109 347.835 455.871C347.312 456.634 346.625 457.125 345.884 457.269C341.851 458.133 332.098 460.334 329.638 462.005C326.512 464.13 314.149 462.644 313.552 460.518C313.384 459.659 313.461 458.739 313.766 457.961C314.196 456.66 314.902 455.586 315.783 454.89C316.067 454.656 316.367 454.463 316.678 454.314C319.005 453.202 323.402 450.858 324.592 448.38C324.592 448.38 330.073 441.531 331.634 437.827C331.929 437.099 332.344 436.487 332.843 436.043C333.343 435.599 333.911 435.337 334.498 435.281C335.805 435.194 337.257 436.133 337.85 440.218C337.85 440.218 344.997 446.042 346.929 440.932C346.929 440.932 347.227 448.778 348.413 450.921C348.57 451.225 348.683 451.571 348.745 451.937C348.808 452.304 348.818 452.685 348.776 453.058V453.058Z" fill="#A27772"/>
<path opacity="0.1" d="M348.776 453.058C348.69 454.119 348.359 455.108 347.835 455.871C347.312 456.633 346.625 457.125 345.884 457.269C341.851 458.133 332.098 460.334 329.638 462.004C326.512 464.13 314.149 462.644 313.552 460.518C313.384 459.659 313.461 458.739 313.766 457.96C314.196 456.66 314.902 455.586 315.783 454.89C317.799 456.802 322.272 458.669 332.114 456.474C341.5 454.383 346.146 452.332 348.413 450.932C348.569 451.235 348.681 451.578 348.743 451.943C348.806 452.308 348.817 452.687 348.776 453.058V453.058Z" fill="black"/>
<g opacity="0.1">
<path opacity="0.1" d="M389.421 105.22V105.116C389.635 103.52 389.954 101.873 389.881 100.283C389.785 101.588 389.632 102.883 389.421 104.16C389.365 104.509 389.365 104.871 389.421 105.22V105.22Z" fill="black"/>
<path opacity="0.1" d="M380.725 125.129C380.96 125.896 381.084 126.723 381.092 127.56C381.161 126.405 381.035 125.243 380.725 124.173C380.322 122.899 379.325 121.897 378.365 122.22C377.091 122.646 376.542 125.014 375.292 125.584C374.239 126.062 373.09 125.008 372.585 123.591C372.081 122.174 372.073 120.537 372.069 118.982C372.069 117.202 372.069 115.428 372.069 113.648C372.069 111.718 372.025 109.615 371.19 108.106C370.153 106.211 367.709 105.387 366.084 105.462C364.998 105.48 363.957 106.08 363.167 107.144C362.292 108.204 361.288 108.981 360.098 108.705C359.603 108.597 359.14 108.291 358.762 107.823C358.384 107.356 358.106 106.744 357.96 106.061C357.835 105.375 357.867 104.644 357.726 103.958C357.375 102.287 356.113 101.418 355.306 100.15C354.522 98.9156 354.076 97.3178 354.052 95.6511C353.99 96.6345 354.069 97.6257 354.285 98.5638C354.5 99.502 354.848 100.367 355.306 101.107C356.145 102.374 357.391 103.25 357.726 104.92C357.867 105.6 357.835 106.332 357.96 107.017C358.106 107.701 358.384 108.312 358.762 108.78C359.14 109.248 359.603 109.553 360.098 109.661C361.308 109.938 362.292 109.16 363.167 108.1C363.957 107.036 364.998 106.436 366.084 106.418C367.697 106.343 370.153 107.173 371.19 109.062C372.025 110.583 372.065 112.674 372.069 114.604C372.069 116.384 372.069 118.158 372.069 119.938C372.069 121.517 372.069 123.159 372.585 124.547C373.102 125.935 374.239 127.018 375.292 126.54C376.542 125.964 377.091 123.602 378.365 123.176C379.337 122.859 380.309 123.856 380.725 125.129Z" fill="black"/>
<path opacity="0.1" d="M392.967 119.27C392.695 120.363 392.263 121.361 391.7 122.197C390.063 125.012 388.424 127.825 386.783 130.636C384.714 134.19 382.52 138.304 382.681 142.837C382.83 138.678 384.859 134.893 386.783 131.592L391.7 123.159C392.262 122.32 392.694 121.32 392.967 120.226C393.088 119.471 393.132 118.695 393.096 117.922C393.092 118.377 393.048 118.83 392.967 119.27V119.27Z" fill="black"/>
<path opacity="0.1" d="M380.144 141.409C380.065 141.034 380.016 140.647 379.999 140.256C379.957 140.962 380.006 141.673 380.144 142.353C380.483 143.897 381.713 145.17 382.746 144.508C382.717 144.197 382.701 143.886 382.693 143.575C381.653 144.185 380.459 142.929 380.144 141.409Z" fill="black"/>
</g>
<path opacity="0.1" d="M330.638 439.745C330.638 439.745 332.195 443.657 337.833 440.212Z" fill="black"/>
<path opacity="0.1" d="M378.329 440.707C378.329 440.707 383.193 448.887 389.324 443.386Z" fill="black"/>
<path opacity="0.1" d="M392.491 343.944C392.491 343.944 389.051 347.015 388.942 348.772C388.833 350.529 390.717 347.493 390.717 347.493L392.491 343.944Z" fill="black"/>
<path opacity="0.1" d="M393.859 367.465C392.664 368.887 391.177 369.715 389.624 369.827C387.054 369.988 387.268 374.776 388.946 373.335C390.624 371.895 393.859 367.465 393.859 367.465Z" fill="black"/>
<path opacity="0.1" d="M394.5 370.536C394.5 370.536 392.85 382.115 391.511 379.879Z" fill="black"/>
<path d="M55.1607 424.398C55.1607 424.398 57.375 428.535 54.1362 434.768C50.8973 441.001 48.2272 446.289 49.296 450.183C49.296 450.183 54.1805 438.581 58.1696 438.42C62.1587 438.259 59.5369 431.375 55.1607 424.398Z" fill="#D25659"/>
<path opacity="0.1" d="M55.1619 424.398C55.356 424.797 55.5082 425.233 55.6136 425.695C59.4938 432.204 61.563 438.282 57.832 438.437C54.3592 438.576 50.1685 447.453 49.1924 449.694C49.2253 449.866 49.2643 450.035 49.3094 450.201C49.3094 450.201 54.1939 438.599 58.183 438.437C62.1721 438.276 59.5382 431.375 55.1619 424.398Z" fill="black"/>
<path d="M59.2798 429.67C59.2798 431.127 59.1669 432.308 59.0257 432.308C58.8845 432.308 58.7676 431.127 58.7676 429.67C58.7676 428.212 58.9128 428.903 59.0539 428.903C59.1951 428.903 59.2798 428.224 59.2798 429.67Z" fill="#FFD037"/>
<path d="M60.6956 431.409C59.8002 432.106 59.0177 432.527 58.9491 432.354C58.8806 432.181 59.5542 431.467 60.4496 430.77C61.345 430.073 60.9901 430.58 61.0586 430.77C61.1272 430.96 61.5911 430.712 60.6956 431.409Z" fill="#FFD037"/>
<path d="M43.456 424.398C43.456 424.398 41.2417 428.535 44.4805 434.768C47.7194 441.001 50.3895 446.289 49.3207 450.183C49.3207 450.183 44.4362 438.581 40.4471 438.42C36.458 438.259 39.0838 431.375 43.456 424.398Z" fill="#D25659"/>
<path opacity="0.1" d="M43.456 424.398C43.2637 424.798 43.1117 425.234 43.0043 425.695C39.1241 432.204 37.0549 438.282 40.7859 438.437C44.2627 438.576 48.4494 447.453 49.4255 449.694C49.3944 449.866 49.3554 450.036 49.3086 450.201C49.3086 450.201 44.4241 438.599 40.435 438.437C36.4459 438.276 39.0838 431.375 43.456 424.398Z" fill="black"/>
<path d="M39.3379 429.67C39.3379 431.127 39.4508 432.308 39.592 432.308C39.7332 432.308 39.8501 431.127 39.8501 429.67C39.8501 428.212 39.7049 428.903 39.5638 428.903C39.4226 428.903 39.3379 428.224 39.3379 429.67Z" fill="#FFD037"/>
<path d="M37.9267 431.409C38.8221 432.106 39.6006 432.527 39.6692 432.354C39.7377 432.181 39.0641 431.467 38.1687 430.77C37.2733 430.073 37.6282 430.58 37.5596 430.77C37.4911 430.96 37.0313 430.712 37.9267 431.409Z" fill="#FFD037"/>
<path d="M40.0439 449.659C40.0439 449.659 46.2393 449.389 48.1109 447.488C49.9824 445.586 57.6379 443.323 58.1017 446.37C58.5656 449.417 67.4109 461.515 60.4169 461.596C53.4229 461.676 44.1661 460.04 42.3027 458.416C40.4392 456.791 40.0439 449.659 40.0439 449.659Z" fill="#A8A8A8"/>
<path opacity="0.2" d="M60.5379 460.536C53.5439 460.616 44.2871 458.98 42.4237 457.356C41.0039 456.123 40.4392 451.693 40.2496 449.648H40.0439C40.0439 449.648 40.4473 456.785 42.2986 458.404C44.15 460.023 53.4189 461.665 60.4129 461.584C62.4296 461.584 63.1314 460.536 63.0911 459.015C62.8128 459.942 62.0424 460.518 60.5379 460.536Z" fill="black"/>
</g>
<defs>
<linearGradient id="paint0_linear" x1="186.809" y1="440.338" x2="186.809" y2="20.5485" gradientUnits="userSpaceOnUse">
<stop stop-color="#808080" stop-opacity="0.25"/>
<stop offset="0.54" stop-color="#808080" stop-opacity="0.12"/>
<stop offset="1" stop-color="#808080" stop-opacity="0.1"/>
</linearGradient>
<linearGradient id="paint1_linear" x1="89617.5" y1="318484" x2="89617.5" y2="67710.6" gradientUnits="userSpaceOnUse">
<stop stop-color="#808080" stop-opacity="0.25"/>
<stop offset="0.54" stop-color="#808080" stop-opacity="0.12"/>
<stop offset="1" stop-color="#808080" stop-opacity="0.1"/>
</linearGradient>
<clipPath id="clip0">
<rect width="436" height="482" fill="white"/>
</clipPath>
</defs>
</svg>
