<svg width="297" height="313" viewBox="0 0 297 313" fill="none" xmlns="http://www.w3.org/2000/svg">
<path opacity="0.1" d="M449.742 297.907C430.322 299.064 410.896 300.151 391.484 301.395C358.672 303.498 325.875 305.84 293.056 307.823C262.088 309.692 231.113 311.666 200.111 312.706C185.796 313.187 171.4 311.672 157.059 310.777C153.999 310.424 151.02 309.563 148.249 308.23C142.091 305.601 140.42 300.289 144.357 294.817C146.443 291.918 149.212 288.993 152.361 287.446C161.686 282.857 171.21 278.587 180.919 274.867C191.919 270.652 203.219 267.212 214.349 263.325C216.547 262.421 218.688 261.387 220.762 260.23L220.65 259.069C218.955 258.659 217.266 257.919 215.564 257.889C200.199 257.623 184.806 256.841 169.469 257.437C143.267 258.455 117.105 260.433 90.9147 261.825C85.8825 262.001 80.8442 261.791 75.8447 261.196C74.2821 261.038 71.9523 259.745 71.6273 258.534C71.2976 257.304 72.6099 254.919 73.8918 254.107C80.8145 249.717 87.8889 245.552 95.035 241.526C100.094 238.676 105.349 236.169 110.234 232.837C102.104 235.021 94.0236 237.425 85.8267 239.323C79.1367 240.873 72.3307 242.009 65.5217 242.94C63.014 243.281 60.3517 242.507 58.0406 242.272C55.9229 243.008 53.8724 244.177 51.7239 244.393C36.2853 245.942 20.8262 247.294 5.37373 248.72C3.65882 248.877 1.94993 249.103 0.239248 249.297L0.110584 247.837C12.8652 246.676 25.6195 245.516 38.3734 244.355C42.0539 244.019 45.745 243.769 49.4093 243.305C55.5794 242.525 58.2598 239.62 59.7228 233.406C60.2288 231.257 61.8413 229.332 63.0759 227.39C68.3113 219.129 73.9985 211.121 78.775 202.609C88.2133 185.792 101.782 172.128 113.396 156.982C126.05 140.483 139.119 124.296 152.079 108.028C153.741 105.942 155.869 104.224 157.709 102.268C158.142 101.69 158.474 101.045 158.689 100.358C159.05 99.5049 159.123 98.4251 159.713 97.7884C165.695 91.3009 171.758 84.8842 177.669 78.5824C176.312 77.4618 174.378 76.6407 174.223 75.5598C173.925 73.6854 174.342 71.7684 175.393 70.1824C186.889 56.0188 198.433 41.8959 210.27 28.015C215.581 21.7871 221.443 16.0004 227.317 10.2784C230.703 6.98049 234.533 3.8745 239.529 8.10659C239.843 8.37167 240.881 8.04343 241.439 7.73668C244.486 6.19386 247.443 4.48102 250.294 2.60645C253.695 0.19507 257.935 -0.297773 261.149 1.86595C264.001 3.78375 264.805 7.25052 263.829 11.3852C261.874 19.6559 256.21 25.9114 251.637 32.5701C233.079 59.493 212.314 84.8539 189.553 108.395C179.116 119.23 168.48 129.884 158.275 140.932C147.058 153.076 136.226 165.562 125.235 177.91C107.299 198.054 88.2378 217.054 67.1589 233.996C64.677 235.991 62.0891 237.855 59.5498 239.78L59.9489 241.089C61.797 241.198 63.7334 241.716 65.4812 241.349C77.6173 238.807 89.7207 236.111 101.82 233.399C106.421 232.368 110.982 231.168 115.567 230.045L116.293 231.533C114.503 232.888 112.641 234.146 110.715 235.302C101.086 240.454 91.3323 245.379 81.7722 250.65C78.4507 252.48 75.5588 255.074 72.4701 257.319L72.9185 259.175C76.4269 259.57 79.9583 260.431 83.439 260.259C101.518 259.392 119.573 257.969 137.656 257.298C161.137 256.429 184.637 256.023 208.132 255.585C211.455 255.64 214.761 256.079 217.981 256.893C219.507 257.224 220.835 258.441 222.255 259.26C221.153 260.453 220.266 262.158 218.897 262.743C212.579 265.425 206.16 267.888 199.712 270.253C187.27 274.813 174.647 278.924 162.381 283.903C157.18 286.089 152.4 289.15 148.251 292.95C141.287 299.255 142.598 305.311 151.64 307.545C159.979 309.585 168.511 310.75 177.096 311.021C209.379 312.071 241.564 309.548 273.748 307.495C307.055 305.372 340.341 302.937 373.649 300.823C398.966 299.218 424.294 297.902 449.618 296.457L449.742 297.907ZM176.793 118.519C172.233 114.198 167.88 109.676 163.092 105.665C159.357 102.535 158.838 102.712 155.692 106.581C144.817 119.959 134.006 133.387 123.261 146.863C110.137 163.289 97.0518 179.747 84.0054 196.234C83.2065 197.24 82.5676 198.372 81.998 199.227L93.2996 209.793L176.793 118.519ZM191.291 103.758C191.697 103.48 192.079 103.168 192.431 102.825C204.795 88.4558 217.464 74.3293 229.396 59.6162C237.927 49.0922 245.453 37.7604 253.492 26.8351C254.909 24.9097 254.822 23.1715 253.122 21.7535C249.015 18.3293 244.766 15.0691 240.404 11.6061L172.334 86.7776C180.92 90.6 186.197 96.9815 191.286 103.759L191.291 103.758ZM90.6033 211.626L81.1614 202.33L60.7546 233.924C62.661 233.759 64.1667 234.094 64.8829 233.496C73.4349 226.366 81.8669 219.096 90.6033 211.626ZM190.164 64.4192L236.907 12.8996C234.415 11.2199 232.915 12.2636 231.453 13.8088C226.991 18.5267 222.384 23.1145 218.031 27.9276C209.403 37.4674 200.853 47.0763 192.38 56.7543C190.63 58.7464 188.974 60.9388 190.167 64.4178L190.164 64.4192ZM175.313 75.5701L176.551 76.2461C180.906 73.0301 184.717 69.1487 187.842 64.7469C188.022 64.5088 187.776 63.9944 187.91 63.6785C189.134 60.7115 189.736 57.1908 191.755 54.8981C203.634 41.3997 215.868 28.2067 227.928 14.8622C230.65 11.8502 233.36 9.13253 237.967 10.7008C238.087 10.7413 238.393 10.2459 238.61 10.0017C235.563 7.27874 234.477 7.08752 231.491 9.14774C229.631 10.3366 227.922 11.7422 226.401 13.3344C211.56 30.0974 196.776 46.9093 182.048 63.7701C180.001 66.2066 178.155 68.8018 176.526 71.5307C175.811 72.6869 175.702 74.2107 175.318 75.5687L175.313 75.5701ZM183.317 111.588C187.074 108.834 187.386 108.08 184.563 105.248C180.679 101.344 176.58 97.6543 172.287 94.1968C169.017 91.5689 167.67 92.0526 165.454 95.4557L183.317 111.588ZM179.203 116.021L180.245 114.852C177.006 107.134 170.236 102.898 163.18 98.6863L160.583 101.523L179.203 116.021ZM258.402 16.7783C261.452 13.0786 261.462 13.0667 257.223 9.17804C256.321 8.36007 255.366 7.60071 254.365 6.90465C250.37 4.10019 249.448 4.21498 246.608 7.04761L258.402 16.7783ZM169.992 89.4275L188.47 105.648C187.351 98.6632 175.644 88.6249 169.991 89.4226L169.992 89.4275ZM255.936 21.4799C255.052 15.8203 250.151 13.2091 245.75 10.2603C244.877 9.67546 243.41 9.96416 242.219 9.84482C242.222 10.1684 242.226 10.493 242.229 10.8186C246.797 14.3682 251.365 17.9202 255.935 21.475L255.936 21.4799ZM262.294 10.0867C262.832 8.96758 262.941 7.69286 262.601 6.4999C262.262 5.30694 261.496 4.277 260.448 3.6017C258.107 1.7923 255.488 1.53718 252.467 2.9231L262.294 10.0867Z" fill="black"/>
</svg>
